<?xml version="1.0" encoding="UTF-8"?>
<svg version="1.1" xmlns="http://www.w3.org/2000/svg" width="231" height="213">
<path d="M0 0 C5.88719541 0.90310089 10.71993656 4.04865394 14.76171875 8.3515625 C17.06890111 11.99839913 17.30959692 13.17118982 16.69921875 17.4140625 C15.05847833 20.45590149 13.0300462 23.16059548 10.94921875 25.9140625 C9.87054078 27.38240644 8.79240542 28.85114916 7.71484375 30.3203125 C7.19986328 31.01382813 6.68488281 31.70734375 6.15429688 32.421875 C4.24759144 35.03239787 2.46441025 37.70629301 0.69921875 40.4140625 C1.68921875 40.7440625 2.67921875 41.0740625 3.69921875 41.4140625 C5.12584094 44.26730687 5.00955743 46.24860799 4.69921875 49.4140625 C3.01171875 52.2265625 3.01171875 52.2265625 0.69921875 54.4140625 C-0.46287109 54.47400391 -0.46287109 54.47400391 -1.6484375 54.53515625 C-5.38946709 55.77481996 -6.12372125 57.90288943 -7.890625 61.30078125 C-8.27347656 62.08066406 -8.65632812 62.86054687 -9.05078125 63.6640625 C-9.44910156 64.42847656 -9.84742188 65.19289063 -10.2578125 65.98046875 C-13.05837218 71.44492356 -13.05837218 71.44492356 -14.30078125 77.4140625 C-12.50002301 81.43928679 -9.54723774 84.53114268 -6.60546875 87.765625 C-3.1311755 92.1553009 -3.79675689 98.13747804 -4.30078125 103.4140625 C-5.34509576 107.34678794 -6.87140613 110.99759455 -8.48828125 114.7265625 C-8.92446777 115.77384521 -9.3606543 116.82112793 -9.81005859 117.90014648 C-11.0186546 120.78346309 -12.2459457 123.65774673 -13.48614502 126.52758789 C-14.34434997 128.51495572 -15.19773275 130.50434513 -16.05029297 132.49414062 C-19.76228059 141.15092264 -23.51499803 149.78930153 -27.30078125 158.4140625 C-26.64078125 158.0840625 -25.98078125 157.7540625 -25.30078125 157.4140625 C-17.20558499 156.64369281 -11.40380397 157.62578372 -4.30078125 161.4140625 C4.34038454 165.65117696 4.34038454 165.65117696 13.69921875 167.4140625 C14.02921875 169.0640625 14.35921875 170.7140625 14.69921875 172.4140625 C6.64894501 173.01037907 1.02645745 170.43932796 -6.171875 167.0703125 C-14.42591303 162.85713455 -14.42591303 162.85713455 -23.30078125 163.4140625 C-20.78380682 165.02456355 -18.2625154 166.62751021 -15.73828125 168.2265625 C-14.68157227 168.90428711 -14.68157227 168.90428711 -13.60351562 169.59570312 C-9.28522727 172.32199578 -5.0511207 174.53515031 -0.30078125 176.4140625 C-0.63078125 177.7340625 -0.96078125 179.0540625 -1.30078125 180.4140625 C-10.94432907 178.96753033 -18.60042722 174.35461563 -26.23828125 168.4140625 C-28.99542004 166.20666476 -28.99542004 166.20666476 -31.48046875 166.4453125 C-35.65206258 167.87821454 -38.92552562 170.35403719 -42.48828125 172.9140625 C-43.9186382 173.92537454 -45.34959953 174.93583245 -46.78125 175.9453125 C-47.40926514 176.39455078 -48.03728027 176.84378906 -48.68432617 177.30664062 C-52.30946476 179.79019729 -54.9133687 179.76788609 -59.30078125 179.4140625 C-60.63703929 178.70725934 -61.94971899 177.95448235 -63.23828125 177.1640625 C-65.20346358 175.97941721 -65.20346358 175.97941721 -67.30078125 175.4140625 C-69.55748013 176.10577097 -71.21120705 177.05890835 -73.1484375 178.3984375 C-76.461341 179.96169505 -78.66444675 179.87378562 -82.30078125 179.4140625 C-85.2808864 177.92274549 -87.8848222 176.02858418 -90.55078125 174.0390625 C-91.2571875 173.53117188 -91.96359375 173.02328125 -92.69140625 172.5 C-94.00055814 171.55780735 -95.3048954 170.60885937 -96.60253906 169.65087891 C-99.75307312 167.13827731 -99.75307312 167.13827731 -103.57421875 166.48828125 C-107.21652075 167.72499411 -109.92528121 169.89767999 -112.92578125 172.2265625 C-120.66263613 177.97953005 -128.37766462 182.29611731 -138.30078125 181.4140625 C-138.30078125 180.0940625 -138.30078125 178.7740625 -138.30078125 177.4140625 C-137.04974609 177.08535156 -137.04974609 177.08535156 -135.7734375 176.75 C-128.31749826 174.64901369 -122.41612013 172.16902454 -116.30078125 167.4140625 C-114.78484375 166.2384375 -114.78484375 166.2384375 -113.23828125 165.0390625 C-112.27921875 164.2346875 -112.27921875 164.2346875 -111.30078125 163.4140625 C-117.1742367 161.807469 -121.01307903 163.80676233 -126.30078125 166.4140625 C-127.64777198 167.28922597 -128.98219135 168.18416628 -130.30078125 169.1015625 C-134.70968993 172.04685805 -139.09942438 172.2968188 -144.30078125 172.4140625 C-143.97078125 170.7640625 -143.64078125 169.1140625 -143.30078125 167.4140625 C-142.41326172 167.14142578 -142.41326172 167.14142578 -141.5078125 166.86328125 C-140.32251953 166.48623047 -140.32251953 166.48623047 -139.11328125 166.1015625 C-138.33597656 165.85792969 -137.55867188 165.61429688 -136.7578125 165.36328125 C-131.45423318 163.31436269 -128.66637809 161.02339057 -125.734375 156.13671875 C-125.09032715 155.07614258 -124.4462793 154.01556641 -123.78271484 152.92285156 C-123.10104636 151.77420165 -122.41957305 150.62543588 -121.73828125 149.4765625 C-121.02400454 148.29200624 -120.30866058 147.1080929 -119.59228516 145.92480469 C-117.48074962 142.42969531 -115.38950506 138.92285287 -113.30078125 135.4140625 C-112.22686225 133.61570638 -111.1526736 131.81751124 -110.078125 130.01953125 C-109.5924707 129.20685791 -109.10681641 128.39418457 -108.60644531 127.55688477 C-108.13432617 126.76725342 -107.66220703 125.97762207 -107.17578125 125.1640625 C-106.69979492 124.36734131 -106.22380859 123.57062012 -105.73339844 122.74975586 C-97.29687315 108.6808429 -88.40432962 94.91293746 -79.17578125 81.3515625 C-78.54824951 80.42939941 -77.92071777 79.50723633 -77.27416992 78.55712891 C-75.63303882 76.16389648 -73.97236305 73.78607999 -72.30078125 71.4140625 C-71.64335938 70.46660156 -70.9859375 69.51914063 -70.30859375 68.54296875 C-67.0757667 65.11516575 -63.79150572 62.74722729 -59.09960938 62.11962891 C-56.73660233 62.05731332 -54.41166138 62.11238879 -52.05078125 62.2265625 C-46.09799149 62.54491312 -46.09799149 62.54491312 -40.30078125 61.4140625 C-39.57912677 59.77045761 -38.92339409 58.09768225 -38.30078125 56.4140625 C-37.07747029 54.36888188 -35.84784508 52.32747012 -34.61328125 50.2890625 C-31.40705258 44.50076853 -30.97250874 41.08216179 -32.07421875 34.66796875 C-32.30078125 32.4140625 -32.30078125 32.4140625 -30.73828125 29.7890625 C-27.85847485 28.16455633 -25.5932309 27.62878748 -22.30078125 27.4140625 C-21.64078125 27.7440625 -20.98078125 28.0740625 -20.30078125 28.4140625 C-20.01356201 27.67244873 -19.72634277 26.93083496 -19.43041992 26.16674805 C-18.12451842 22.80845249 -16.80656115 19.45501721 -15.48828125 16.1015625 C-14.81055664 14.35069336 -14.81055664 14.35069336 -14.11914062 12.56445312 C-13.45688477 10.88706055 -13.45688477 10.88706055 -12.78125 9.17578125 C-12.17639771 7.628302 -12.17639771 7.628302 -11.55932617 6.04956055 C-8.80353363 0.2787011 -6.08958394 -0.19557788 0 0 Z M-4.30078125 4.4140625 C-6.70210663 7.34469622 -8.07984617 10.05339308 -9.34375 13.6171875 C-9.69501953 14.596875 -10.04628906 15.5765625 -10.40820312 16.5859375 C-10.76462891 17.60171875 -11.12105469 18.6175 -11.48828125 19.6640625 C-11.85630859 20.6953125 -12.22433594 21.7265625 -12.60351562 22.7890625 C-13.5088127 25.32859715 -14.40764603 27.87023051 -15.30078125 30.4140625 C-12.58092932 33.2872592 -9.99359131 34.90679309 -6.30078125 36.4140625 C-3.84439128 36.14260719 -2.67048893 35.79094066 -0.92871094 34.01538086 C-0.53071289 33.43409424 -0.13271484 32.85280762 0.27734375 32.25390625 C0.715625 31.62548828 1.15390625 30.99707031 1.60546875 30.34960938 C2.04890625 29.69025391 2.49234375 29.03089844 2.94921875 28.3515625 C3.408125 27.68833984 3.86703125 27.02511719 4.33984375 26.34179688 C5.46957551 24.70603943 6.58573048 23.06092016 7.69921875 21.4140625 C5.67755749 20.39187422 3.65336989 19.39305198 1.59375 18.44921875 C0.90667969 18.12824219 0.21960938 17.80726562 -0.48828125 17.4765625 C-1.18308594 17.15816406 -1.87789062 16.83976562 -2.59375 16.51171875 C-4.30078125 15.4140625 -4.30078125 15.4140625 -5.30078125 12.4140625 C-3.98078125 12.4140625 -2.66078125 12.4140625 -1.30078125 12.4140625 C-1.30078125 11.7540625 -1.30078125 11.0940625 -1.30078125 10.4140625 C0.24609375 11.125625 0.24609375 11.125625 1.82421875 11.8515625 C5.08456037 13.25928638 8.15972958 13.98241748 11.69921875 14.4140625 C9.67454001 9.56929551 6.28867811 7.67479618 1.69921875 5.4140625 C-1.61062708 4.55186476 -1.61062708 4.55186476 -4.30078125 4.4140625 Z M-25.30078125 32.4140625 C-25.96078125 33.0740625 -26.62078125 33.7340625 -27.30078125 34.4140625 C-27.37021271 36.43520617 -27.37021271 36.43520617 -26.30078125 38.4140625 C-24.03621564 40.07692535 -24.03621564 40.07692535 -21.171875 41.4296875 C-20.13740234 41.95820312 -19.10292969 42.48671875 -18.03710938 43.03125 C-16.40418945 43.83949219 -16.40418945 43.83949219 -14.73828125 44.6640625 C-13.64580078 45.21835937 -12.55332031 45.77265625 -11.42773438 46.34375 C-8.72471936 47.71296284 -6.01587772 49.06900947 -3.30078125 50.4140625 C-2.31078125 49.7540625 -1.32078125 49.0940625 -0.30078125 48.4140625 C-0.66250331 45.85933704 -0.92241471 44.7176183 -2.97143555 43.07373047 C-3.68211182 42.68846191 -4.39278809 42.30319336 -5.125 41.90625 C-5.90681641 41.47699219 -6.68863281 41.04773437 -7.49414062 40.60546875 C-8.31720703 40.17105469 -9.14027344 39.73664062 -9.98828125 39.2890625 C-10.79201172 38.84691406 -11.59574219 38.40476562 -12.42382812 37.94921875 C-16.62856082 35.67323098 -20.6832838 33.74187275 -25.30078125 32.4140625 Z M-26.30078125 44.4140625 C-26.76133911 45.29928589 -26.76133911 45.29928589 -27.23120117 46.20239258 C-28.63654181 48.88454787 -30.06209463 51.55543762 -31.48828125 54.2265625 C-31.97103516 55.15533203 -32.45378906 56.08410156 -32.95117188 57.04101562 C-33.43134766 57.93369141 -33.91152344 58.82636719 -34.40625 59.74609375 C-34.84090576 60.56827393 -35.27556152 61.3904541 -35.72338867 62.23754883 C-37.63592185 64.87649531 -39.36066534 66.03282055 -42.30078125 67.4140625 C-44.39379883 67.64355469 -44.39379883 67.64355469 -46.4453125 67.4609375 C-47.20521484 67.4196875 -47.96511719 67.3784375 -48.74804688 67.3359375 C-50.31442781 67.22211296 -51.87972377 67.09210813 -53.44335938 66.9453125 C-57.91928938 66.73379176 -60.71794897 67.22141964 -64.26953125 70.046875 C-69.76928796 75.46688558 -73.81396262 82.09076309 -77.98828125 88.5390625 C-78.87864674 89.89675888 -79.76968631 91.25401342 -80.66137695 92.61083984 C-87.12621636 102.4784471 -93.4372321 112.43856545 -99.55078125 122.52783203 C-101.23545328 125.30631874 -102.92724784 128.08032758 -104.62101746 130.85327148 C-106.57907762 134.05963078 -108.53380473 137.26801791 -110.48828125 140.4765625 C-110.86512054 141.09468811 -111.24195984 141.71281372 -111.63021851 142.34967041 C-112.70313972 144.11096677 -113.77379569 145.87361887 -114.84375 147.63671875 C-115.4627417 148.65515869 -116.0817334 149.67359863 -116.71948242 150.72290039 C-118.01155269 152.92183363 -119.20100487 155.11484143 -120.30078125 157.4140625 C-115.93003844 158.58111948 -112.66199817 158.69491501 -108.30078125 157.4140625 C-106.13589238 155.24220206 -104.70950893 152.71162163 -103.18359375 150.06640625 C-102.22979761 148.50494439 -101.27458184 146.944349 -100.31811523 145.38452148 C-99.57946732 144.15848709 -99.57946732 144.15848709 -98.82589722 142.90768433 C-96.30815301 138.79107809 -93.63459546 134.77943758 -90.96875 130.7578125 C-89.89212594 129.12269348 -88.81595606 127.48727532 -87.74023438 125.8515625 C-87.205354 125.03945312 -86.67047363 124.22734375 -86.11938477 123.390625 C-84.47144341 120.88849701 -82.82451481 118.38570467 -81.17773438 115.8828125 C-80.1081309 114.25777434 -79.03847148 112.63277299 -77.96875 111.0078125 C-77.48738083 110.27639038 -77.00601166 109.54496826 -76.51005554 108.79138184 C-75.58169653 107.38206405 -74.65053729 105.97458632 -73.71640015 104.5690918 C-72.71196615 103.04001875 -71.72653468 101.49838704 -70.75454712 99.94848633 C-69.98333023 98.73745239 -69.98333023 98.73745239 -69.1965332 97.50195312 C-68.50754692 96.40010681 -68.50754692 96.40010681 -67.80464172 95.27600098 C-65.6933241 92.66196623 -63.56385682 91.64751032 -60.29296875 91.04296875 C-52.76803284 90.80694678 -46.66800026 93.27295439 -41.1484375 98.421875 C-36.66443101 103.3918781 -34.85613505 107.18702398 -34.8671875 113.91796875 C-35.65820109 118.47164158 -38.47802336 121.86041194 -41.30078125 125.4140625 C-35.71577558 125.21507542 -35.71577558 125.21507542 -31.30078125 122.4140625 C-28.67578125 121.7890625 -28.67578125 121.7890625 -26.30078125 121.4140625 C-28.60566517 127.04069088 -31.31003607 132.36679534 -34.17578125 137.7265625 C-37.63786392 144.24864299 -41.04175733 150.78738052 -44.30078125 157.4140625 C-38.85578125 157.9090625 -38.85578125 157.9090625 -33.30078125 158.4140625 C-28.48055577 148.42304969 -24.02357207 138.27820277 -19.61328125 128.1015625 C-19.33183258 127.45330505 -19.05038391 126.80504761 -18.76040649 126.137146 C-10.33112769 110.29783887 -10.33112769 110.29783887 -9.30078125 93.5390625 C-11.14214901 90.50351911 -11.14214901 90.50351911 -13.0625 88.35546875 C-13.69800781 87.61167969 -14.33351563 86.86789063 -14.98828125 86.1015625 C-15.92220703 85.08642578 -15.92220703 85.08642578 -16.875 84.05078125 C-18.99088556 80.1378422 -18.96783174 76.76877784 -18.30078125 72.4140625 C-17.25110991 69.31341733 -15.83596115 66.48780444 -14.30078125 63.6015625 C-13.54391767 62.14025325 -12.79364225 60.67550827 -12.05078125 59.20703125 C-11.54804688 58.25606567 -11.54804688 58.25606567 -11.03515625 57.28588867 C-10.05729602 55.12857225 -10.05729602 55.12857225 -10.30078125 51.4140625 C-12.59007178 50.24251957 -14.88196487 49.07668176 -17.17578125 47.9140625 C-17.82675781 47.58019531 -18.47773438 47.24632812 -19.1484375 46.90234375 C-22.55322835 45.04562533 -22.55322835 45.04562533 -26.30078125 44.4140625 Z M-63.80078125 97.4765625 C-65.71744089 101.23002097 -65.24942201 103.38233927 -64.30078125 107.4140625 C-63.64078125 107.4140625 -62.98078125 107.4140625 -62.30078125 107.4140625 C-60.9480001 105.42716519 -59.6150982 103.42661032 -58.30078125 101.4140625 C-55.41216416 99.96975395 -53.50430424 100.03717744 -50.30078125 100.4140625 C-47.42578125 102.5390625 -47.42578125 102.5390625 -45.30078125 105.4140625 C-44.73256899 109.39154835 -45.19899492 111.99865971 -47.30078125 115.4140625 C-44.40004944 116.09207284 -44.40004944 116.09207284 -41.30078125 116.4140625 C-39.03738426 114.55405435 -39.03738426 114.55405435 -38.92578125 111.6640625 C-39.49053517 106.76952854 -41.530977 103.94172049 -45.2421875 100.73828125 C-50.77779104 96.46679343 -57.43943496 92.22845181 -63.80078125 97.4765625 Z M-54.30078125 104.4140625 C-54.63078125 105.0740625 -54.96078125 105.7340625 -55.30078125 106.4140625 C-53.90985233 109.03793385 -53.90985233 109.03793385 -52.30078125 111.4140625 C-51.31078125 110.7540625 -50.32078125 110.0940625 -49.30078125 109.4140625 C-49.63078125 108.0940625 -49.96078125 106.7740625 -50.30078125 105.4140625 C-51.62078125 105.0840625 -52.94078125 104.7540625 -54.30078125 104.4140625 Z M-70.30078125 107.4140625 C-71.65787382 109.00034876 -71.65787382 109.00034876 -73.00292969 111.11083984 C-73.54399353 111.91943451 -74.08505737 112.72802917 -74.64251709 113.56112671 C-75.22583801 114.4484549 -75.80915894 115.33578308 -76.41015625 116.25 C-77.01458557 117.15851715 -77.61901489 118.0670343 -78.24176025 119.00308228 C-79.52605866 120.93627259 -80.80702501 122.87167992 -82.08496094 124.80908203 C-84.02231297 127.74590753 -85.9691228 130.67626124 -87.91796875 133.60546875 C-89.16593379 135.48660167 -90.41334643 137.3681012 -91.66015625 139.25 C-92.23538025 140.11708588 -92.81060425 140.98417175 -93.40325928 141.87753296 C-97.19557593 147.63181371 -100.80074535 153.47762229 -104.30078125 159.4140625 C-103.18703125 159.1665625 -103.18703125 159.1665625 -102.05078125 158.9140625 C-87.5538633 156.98114011 -78.3958007 160.69383732 -66.30078125 168.4140625 C-65.39714844 167.84816406 -64.49351563 167.28226563 -63.5625 166.69921875 C-62.3711949 165.9581707 -61.17978306 165.21729423 -59.98828125 164.4765625 C-59.09592773 163.91678711 -59.09592773 163.91678711 -58.18554688 163.34570312 C-55.57330381 161.72582056 -53.22856952 160.38999192 -50.30078125 159.4140625 C-48.73632626 156.85133622 -47.34108998 154.3355659 -45.98828125 151.6640625 C-45.59455322 150.90359619 -45.2008252 150.14312988 -44.79516602 149.35961914 C-41.42856571 142.80281329 -38.28892691 136.15203802 -35.30078125 129.4140625 C-36.14640625 129.31609375 -36.99203125 129.218125 -37.86328125 129.1171875 C-47.8724606 127.79779568 -54.96811032 125.58378519 -62.30078125 118.4140625 C-64.84354435 114.90917281 -66.92889794 111.52971244 -68.30078125 107.4140625 C-68.96078125 107.4140625 -69.62078125 107.4140625 -70.30078125 107.4140625 Z M-59.30078125 110.4140625 C-59.63078125 111.4040625 -59.96078125 112.3940625 -60.30078125 113.4140625 C-56.42051234 117.65810662 -52.25823779 120.52323797 -47.30078125 123.4140625 C-46.31078125 122.4240625 -45.32078125 121.4340625 -44.30078125 120.4140625 C-45.18830078 120.08535156 -45.18830078 120.08535156 -46.09375 119.75 C-51.74947243 117.48032999 -54.72427208 115.33176261 -58.30078125 110.4140625 C-58.63078125 110.4140625 -58.96078125 110.4140625 -59.30078125 110.4140625 Z M-97.30078125 163.4140625 C-96.57632813 163.87296875 -95.851875 164.331875 -95.10546875 164.8046875 C-94.13867188 165.41828125 -93.171875 166.031875 -92.17578125 166.6640625 C-91.1703125 167.29957031 -90.16484375 167.93507812 -89.12890625 168.58984375 C-87.0066141 169.95878081 -84.96412046 171.3657205 -82.92578125 172.8515625 C-80.02958886 174.57548654 -78.60610337 174.95006068 -75.30078125 174.4140625 C-74.31078125 173.7540625 -73.32078125 173.0940625 -72.30078125 172.4140625 C-73.50133019 168.81241569 -74.79300712 168.35583887 -78.07226562 166.7109375 C-78.70455078 166.40671875 -79.33683594 166.1025 -79.98828125 165.7890625 C-80.60123047 165.47710937 -81.21417969 165.16515625 -81.84570312 164.84375 C-87.1596151 162.22905736 -91.97147504 159.92951613 -97.30078125 163.4140625 Z M-61.30078125 170.4140625 C-60.97078125 171.4040625 -60.64078125 172.3940625 -60.30078125 173.4140625 C-57.24877545 174.47090593 -55.12888002 174.76790336 -52.11816406 173.48144531 C-49.66420743 172.07582059 -47.29263849 170.58676819 -44.92578125 169.0390625 C-44.09433594 168.51828125 -43.26289063 167.9975 -42.40625 167.4609375 C-39.30759634 165.50501347 -39.30759634 165.50501347 -36.30078125 163.4140625 C-36.30078125 163.0840625 -36.30078125 162.7540625 -36.30078125 162.4140625 C-45.7653628 159.67431521 -53.9507476 164.92816782 -61.30078125 170.4140625 Z " fill="#3E3E3E" transform="translate(172.30078125,16.5859375)"/>
<path d="M0 0 C6.62936382 2.96227351 11.25551609 7.31554006 15.47265625 13.1953125 C16.84078129 17.29968761 17.23677822 20.91347589 16.47265625 25.1953125 C14.78978688 28.16854527 12.77570439 30.67978075 10.47265625 33.1953125 C15.48800677 32.86571034 15.48800677 32.86571034 19.47265625 30.1953125 C22.09765625 30.0703125 22.09765625 30.0703125 24.47265625 30.1953125 C23.87060305 34.0541827 22.71255181 37.02266825 20.890625 40.46875 C20.37048828 41.45875 19.85035156 42.44875 19.31445312 43.46875 C18.76853516 44.49226563 18.22261719 45.51578125 17.66015625 46.5703125 C17.12583984 47.58609375 16.59152344 48.601875 16.04101562 49.6484375 C13.27592574 54.88612314 10.45067971 60.07570801 7.47265625 65.1953125 C10.11265625 65.5253125 12.75265625 65.8553125 15.47265625 66.1953125 C15.47265625 66.5253125 15.47265625 66.8553125 15.47265625 67.1953125 C13.66023573 67.22218529 11.84770392 67.24164965 10.03515625 67.2578125 C9.02582031 67.26941406 8.01648438 67.28101563 6.9765625 67.29296875 C4.47265625 67.1953125 4.47265625 67.1953125 3.47265625 66.1953125 C3.14265625 66.8553125 2.81265625 67.5153125 2.47265625 68.1953125 C1.81265625 68.1953125 1.15265625 68.1953125 0.47265625 68.1953125 C1.74978179 64.08837351 3.28556619 60.37937665 5.29296875 56.578125 C6.09541016 55.05058594 6.09541016 55.05058594 6.9140625 53.4921875 C7.74744141 51.92210937 7.74744141 51.92210937 8.59765625 50.3203125 C9.16097656 49.25039062 9.72429687 48.18046875 10.3046875 47.078125 C11.69000364 44.44837233 13.07943221 41.82088167 14.47265625 39.1953125 C13.65643799 39.07124023 12.84021973 38.94716797 11.99926758 38.81933594 C10.92443115 38.64950195 9.84959473 38.47966797 8.7421875 38.3046875 C7.14661011 38.0567041 7.14661011 38.0567041 5.51879883 37.80371094 C-2.41315075 36.21948249 -9.22726612 31.58708247 -14.07421875 25.13671875 C-17.52734375 19.85033357 -17.52734375 19.85033357 -17.52734375 16.1953125 C-19.81569018 18.34874734 -21.54958774 20.56075765 -23.26708984 23.18847656 C-24.05338272 24.38552216 -24.05338272 24.38552216 -24.8555603 25.60675049 C-25.41498322 26.4661322 -25.97440613 27.32551392 -26.55078125 28.2109375 C-27.13397125 29.10012878 -27.71716125 29.98932007 -28.31802368 30.90545654 C-30.18285961 33.74986803 -32.04285679 36.59740192 -33.90234375 39.4453125 C-35.75542733 42.27844782 -37.60955178 45.11089209 -39.46524048 47.94232178 C-40.61892468 49.70314026 -41.77100864 51.4650086 -42.92123413 53.22808838 C-46.02080654 57.96444355 -49.20265858 62.61395027 -52.52734375 67.1953125 C-51.40714844 67.18371094 -50.28695312 67.17210937 -49.1328125 67.16015625 C-47.66015792 67.15077628 -46.18750153 67.1416763 -44.71484375 67.1328125 C-43.97685547 67.12443359 -43.23886719 67.11605469 -42.47851562 67.10742188 C-39.22812307 67.09271422 -36.6332948 67.15999548 -33.52734375 68.1953125 C-33.52734375 68.8553125 -33.52734375 69.5153125 -33.52734375 70.1953125 C-34.52636719 70.18371094 -35.52539062 70.17210937 -36.5546875 70.16015625 C-38.49021484 70.14662109 -38.49021484 70.14662109 -40.46484375 70.1328125 C-41.75261719 70.12121094 -43.04039063 70.10960937 -44.3671875 70.09765625 C-47.39032778 69.82998701 -47.39032778 69.82998701 -48.52734375 71.1953125 C-47.01140625 71.783125 -47.01140625 71.783125 -45.46484375 72.3828125 C-40.44008462 74.53918686 -36.15768469 77.46906915 -32.40234375 81.4453125 C-30.15394593 83.54381714 -28.54135857 83.86042196 -25.52734375 84.1953125 C-25.52734375 84.8553125 -25.52734375 85.5153125 -25.52734375 86.1953125 C-30.03303946 86.94992495 -32.45378653 85.8525972 -36.09375 83.38671875 C-37.76902695 82.19084912 -39.43417095 80.98067988 -41.08984375 79.7578125 C-42.75234055 78.54325556 -44.42015165 77.33593214 -46.09375 76.13671875 C-46.82537354 75.59732666 -47.55699707 75.05793457 -48.31079102 74.50219727 C-50.73279951 73.0741753 -52.75964202 72.58896146 -55.52734375 72.1953125 C-55.52734375 71.5353125 -55.52734375 70.8753125 -55.52734375 70.1953125 C-63.81552622 69.85879983 -70.30728961 69.64654388 -77.40625 74.47265625 C-82.46420093 77.88751549 -86.41366522 79.03964013 -92.52734375 79.1953125 C-92.52734375 78.2053125 -92.52734375 77.2153125 -92.52734375 76.1953125 C-91.93566406 76.01355469 -91.34398438 75.83179688 -90.734375 75.64453125 C-89.94417969 75.39316406 -89.15398437 75.14179688 -88.33984375 74.8828125 C-87.56253906 74.63917969 -86.78523438 74.39554687 -85.984375 74.14453125 C-80.68079568 72.09561269 -77.89294059 69.80464057 -74.9609375 64.91796875 C-74.31664795 63.85698975 -73.6723584 62.79601074 -73.00854492 61.70288086 C-72.32711811 60.55463931 -71.64588884 59.4062805 -70.96484375 58.2578125 C-70.25276493 57.07691796 -69.53961873 55.89666643 -68.82543945 54.71704102 C-66.71166722 51.21829387 -64.61833154 47.70772493 -62.52734375 44.1953125 C-61.41828338 42.33835372 -60.30893712 40.48156564 -59.19921875 38.625 C-58.69729004 37.78517578 -58.19536133 36.94535156 -57.67822266 36.08007812 C-57.19530762 35.27248047 -56.71239258 34.46488281 -56.21484375 33.6328125 C-55.73837402 32.83552734 -55.2619043 32.03824219 -54.77099609 31.21679688 C-51.45158811 25.68255234 -48.06400274 20.19631865 -44.58984375 14.7578125 C-44.15309326 14.06550537 -43.71634277 13.37319824 -43.26635742 12.65991211 C-40.69566197 8.67972025 -38.00197705 5.42131372 -34.52734375 2.1953125 C-33.86734375 2.5253125 -33.20734375 2.8553125 -32.52734375 3.1953125 C-32.8927124 3.77571289 -33.25808105 4.35611328 -33.63452148 4.95410156 C-42.05120734 18.33841786 -50.35716371 31.78260002 -58.53881836 45.31152344 C-63.16592822 52.9619175 -67.83090215 60.58734294 -72.52734375 68.1953125 C-71.53734375 67.7003125 -71.53734375 67.7003125 -70.52734375 67.1953125 C-68.32005145 67.12438408 -66.11066923 67.11116225 -63.90234375 67.1328125 C-62.71382812 67.14183594 -61.5253125 67.15085937 -60.30078125 67.16015625 C-58.92792969 67.17755859 -58.92792969 67.17755859 -57.52734375 67.1953125 C-57.42349365 66.63658447 -57.31964355 66.07785645 -57.21264648 65.50219727 C-56.39020988 62.73368871 -55.12730158 60.71422845 -53.5625 58.28515625 C-52.62265259 56.81961304 -52.62265259 56.81961304 -51.66381836 55.32446289 C-50.63720093 53.74459595 -50.63720093 53.74459595 -49.58984375 52.1328125 C-48.8841626 51.0389624 -48.17848145 49.9451123 -47.45141602 48.81811523 C-42.02320229 40.42045663 -36.50828036 32.07974103 -30.96484375 23.7578125 C-30.59247589 23.19867157 -30.22010803 22.63953064 -29.8364563 22.06344604 C-27.41447726 18.43091274 -24.97271852 14.8121171 -22.52734375 11.1953125 C-21.88684082 10.22706543 -21.24633789 9.25881836 -20.58642578 8.26123047 C-19.98040527 7.36162598 -19.37438477 6.46202148 -18.75 5.53515625 C-17.95928101 4.34780884 -17.95928101 4.34780884 -17.15258789 3.13647461 C-12.73997867 -2.13386577 -6.13973894 -1.95484733 0 0 Z M-13.02734375 6.2578125 C-14.94400339 10.01127097 -14.47598451 12.16358927 -13.52734375 16.1953125 C-12.86734375 16.1953125 -12.20734375 16.1953125 -11.52734375 16.1953125 C-10.1745626 14.20841519 -8.8416607 12.20786032 -7.52734375 10.1953125 C-4.63872666 8.75100395 -2.73086674 8.81842744 0.47265625 9.1953125 C3.34765625 11.3203125 3.34765625 11.3203125 5.47265625 14.1953125 C6.04086851 18.17279835 5.57444258 20.77990971 3.47265625 24.1953125 C6.37338806 24.87332284 6.37338806 24.87332284 9.47265625 25.1953125 C11.73605324 23.33530435 11.73605324 23.33530435 11.84765625 20.4453125 C11.28290233 15.55077854 9.2424605 12.72297049 5.53125 9.51953125 C-0.00435354 5.24804343 -6.66599746 1.00970181 -13.02734375 6.2578125 Z M-3.52734375 13.1953125 C-3.85734375 13.8553125 -4.18734375 14.5153125 -4.52734375 15.1953125 C-3.13641483 17.81918385 -3.13641483 17.81918385 -1.52734375 20.1953125 C-0.53734375 19.5353125 0.45265625 18.8753125 1.47265625 18.1953125 C1.14265625 16.8753125 0.81265625 15.5553125 0.47265625 14.1953125 C-0.84734375 13.8653125 -2.16734375 13.5353125 -3.52734375 13.1953125 Z M-8.52734375 19.1953125 C-8.85734375 20.1853125 -9.18734375 21.1753125 -9.52734375 22.1953125 C-5.64707484 26.43935662 -1.48480029 29.30448797 3.47265625 32.1953125 C4.46265625 31.2053125 5.45265625 30.2153125 6.47265625 29.1953125 C5.58513672 28.86660156 5.58513672 28.86660156 4.6796875 28.53125 C-0.97603493 26.26157999 -3.95083458 24.11301261 -7.52734375 19.1953125 C-7.85734375 19.1953125 -8.18734375 19.1953125 -8.52734375 19.1953125 Z " fill="#5F5F5F" transform="translate(121.52734375,107.8046875)"/>
<path d="M0 0 C0.66 0.33 1.32 0.66 2 1 C1.63463135 1.58040039 1.2692627 2.16080078 0.89282227 2.75878906 C-7.52386359 16.14310536 -15.82981996 29.58728752 -24.01147461 43.11621094 C-28.63858447 50.766605 -33.3035584 58.39203044 -38 66 C-37.01 65.505 -37.01 65.505 -36 65 C-33.7927077 64.92907158 -31.58332548 64.91584975 -29.375 64.9375 C-28.18648437 64.94652344 -26.99796875 64.95554687 -25.7734375 64.96484375 C-24.40058594 64.98224609 -24.40058594 64.98224609 -23 65 C-22.89977539 64.44707275 -22.79955078 63.89414551 -22.69628906 63.32446289 C-21.83644036 60.45397921 -20.48091577 58.3299685 -18.859375 55.80859375 C-18.20686768 54.78967041 -17.55436035 53.77074707 -16.88208008 52.72094727 C-16.17849365 51.63740967 -15.47490723 50.55387207 -14.75 49.4375 C-14.02562029 48.31763631 -13.30125518 47.19776319 -12.5769043 46.07788086 C-10.39493427 42.71178908 -8.19751203 39.35596404 -6 36 C-5.35691895 35.01032227 -4.71383789 34.02064453 -4.05126953 33.00097656 C-2.319936 30.34457003 -0.57050037 27.70131133 1.1875 25.0625 C1.70280273 24.27093506 2.21810547 23.47937012 2.74902344 22.66381836 C7.17278653 16.12076071 7.17278653 16.12076071 12 15 C10.36116353 19.86953259 7.62678195 23.79765194 4.765625 28.01171875 C4.24997986 28.77998489 3.73433472 29.54825104 3.20306396 30.33979797 C1.5564175 32.7920085 -0.09633062 35.2400211 -1.75 37.6875 C-3.91459722 40.89763731 -6.07622028 44.10974658 -8.234375 47.32421875 C-8.74802612 48.08910614 -9.26167725 48.85399353 -9.79089355 49.64205933 C-13.36841846 54.99397178 -16.80583528 60.40844311 -20 66 C-18.73542969 65.91621094 -17.47085938 65.83242187 -16.16796875 65.74609375 C-14.5078316 65.64292138 -12.84767425 65.54007369 -11.1875 65.4375 C-9.93743164 65.35338867 -9.93743164 65.35338867 -8.66210938 65.26757812 C-7.85966797 65.21923828 -7.05722656 65.17089844 -6.23046875 65.12109375 C-5.12288208 65.05039673 -5.12288208 65.05039673 -3.99291992 64.97827148 C-2 65 -2 65 1 66 C1 66.66 1 67.32 1 68 C0.00097656 67.98839844 -0.99804688 67.97679687 -2.02734375 67.96484375 C-3.96287109 67.95130859 -3.96287109 67.95130859 -5.9375 67.9375 C-7.22527344 67.92589844 -8.51304688 67.91429687 -9.83984375 67.90234375 C-12.86298403 67.63467451 -12.86298403 67.63467451 -14 69 C-12.4840625 69.5878125 -12.4840625 69.5878125 -10.9375 70.1875 C-5.91274087 72.34387436 -1.63034094 75.27375665 2.125 79.25 C4.37339782 81.34850464 5.98598518 81.66510946 9 82 C9 82.66 9 83.32 9 84 C4.49430429 84.75461245 2.07355722 83.6572847 -1.56640625 81.19140625 C-3.2416832 79.99553662 -4.9068272 78.78536738 -6.5625 77.5625 C-8.2249968 76.34794306 -9.8928079 75.14061964 -11.56640625 73.94140625 C-12.29802979 73.40201416 -13.02965332 72.86262207 -13.78344727 72.30688477 C-16.20545576 70.8788628 -18.23229827 70.39364896 -21 70 C-21 69.34 -21 68.68 -21 68 C-29.28818247 67.66348733 -35.77994586 67.45123138 -42.87890625 72.27734375 C-47.93685718 75.69220299 -51.88632147 76.84432763 -58 77 C-58 76.01 -58 75.02 -58 74 C-57.40832031 73.81824219 -56.81664063 73.63648438 -56.20703125 73.44921875 C-55.41683594 73.19785156 -54.62664063 72.94648438 -53.8125 72.6875 C-53.03519531 72.44386719 -52.25789063 72.20023437 -51.45703125 71.94921875 C-46.15345193 69.90030019 -43.36559684 67.60932807 -40.43359375 62.72265625 C-39.7893042 61.66167725 -39.14501465 60.60069824 -38.48120117 59.50756836 C-37.79977436 58.35932681 -37.11854509 57.210968 -36.4375 56.0625 C-35.72542118 54.88160546 -35.01227498 53.70135393 -34.2980957 52.52172852 C-32.18432347 49.02298137 -30.09098779 45.51241243 -28 42 C-26.89093963 40.14304122 -25.78159337 38.28625314 -24.671875 36.4296875 C-24.16994629 35.58986328 -23.66801758 34.75003906 -23.15087891 33.88476562 C-22.66796387 33.07716797 -22.18504883 32.26957031 -21.6875 31.4375 C-20.97279541 30.24157227 -20.97279541 30.24157227 -20.24365234 29.02148438 C-16.92424436 23.48723984 -13.53665899 18.00100615 -10.0625 12.5625 C-9.62574951 11.87019287 -9.18899902 11.17788574 -8.73901367 10.46459961 C-6.16831822 6.48440775 -3.4746333 3.22600122 0 0 Z " fill="#878787" transform="translate(87,110)"/>
<path d="M0 0 C0.85722656 -0.00257813 1.71445312 -0.00515625 2.59765625 -0.0078125 C4.9375 0.125 4.9375 0.125 7.9375 1.125 C7.9375 1.785 7.9375 2.445 7.9375 3.125 C8.59492187 3.01414063 9.25234375 2.90328125 9.9296875 2.7890625 C14.49234737 3.29865828 17.41414809 5.8418201 21.0625 8.5 C22.13564453 9.26183594 22.13564453 9.26183594 23.23046875 10.0390625 C24.55998729 10.98339342 25.88608197 11.93257739 27.20751953 12.88818359 C30.90444294 15.53122819 33.44175674 16.52556757 37.9375 17.125 C37.9375 16.465 37.9375 15.805 37.9375 15.125 C36.266875 14.9703125 36.266875 14.9703125 34.5625 14.8125 C32.768125 14.4721875 32.768125 14.4721875 30.9375 14.125 C30.2775 13.135 29.6175 12.145 28.9375 11.125 C29.659375 11.455 30.38125 11.785 31.125 12.125 C33.99007496 13.14369332 35.93085617 13.28324441 38.9375 13.125 C39.9275 13.125 40.9175 13.125 41.9375 13.125 C41.2775 13.785 40.6175 14.445 39.9375 15.125 C40.68 14.815625 41.4225 14.50625 42.1875 14.1875 C43.095 13.836875 44.0025 13.48625 44.9375 13.125 C45.5975 12.83625 46.2575 12.5475 46.9375 12.25 C48.9375 12.125 48.9375 12.125 51.1875 14.0625 C54.17729272 16.30484454 56.07361691 16.76094154 59.80078125 16.59765625 C63.70311849 15.73443357 66.77128811 13.48281736 69.9375 11.125 C67.9575 11.455 65.9775 11.785 63.9375 12.125 C66.71030706 9.04410327 69.00076356 7.43724548 72.9375 6.125 C72.6075 7.115 72.2775 8.105 71.9375 9.125 C72.93330078 8.45791016 72.93330078 8.45791016 73.94921875 7.77734375 C74.83222656 7.21144531 75.71523437 6.64554688 76.625 6.0625 C77.49511719 5.49402344 78.36523438 4.92554688 79.26171875 4.33984375 C82.52043257 2.8603401 83.60608867 2.88587749 86.9375 4.125 C89.12726199 5.50726974 91.17657759 6.90176741 93.25 8.4375 C99.14114492 12.6584192 104.77556981 16.49515155 111.9375 18.125 C111.9375 17.465 111.9375 16.805 111.9375 16.125 C111.009375 16.021875 110.08125 15.91875 109.125 15.8125 C105.78784764 15.09272204 105.10563468 14.55357128 102.9375 12.125 C104.5885403 12.52053053 106.2333515 12.94213897 107.875 13.375 C108.79152344 13.60703125 109.70804688 13.8390625 110.65234375 14.078125 C112.9375 15.125 112.9375 15.125 113.75390625 17.234375 C113.81449219 17.85828125 113.87507812 18.4821875 113.9375 19.125 C109.540557 20.63395089 106.94482242 19.32581633 102.80859375 17.57421875 C97.53592332 14.91277558 92.76035624 11.51641489 87.9375 8.125 C85.23660555 5.91519821 85.23660555 5.91519821 82.76171875 6.15625 C78.5876495 7.58801926 75.31429853 10.06386604 71.75 12.625 C70.31964305 13.63631204 68.88868172 14.64676995 67.45703125 15.65625 C66.82901611 16.10548828 66.20100098 16.55472656 65.55395508 17.01757812 C61.92881649 19.50113479 59.32491255 19.47882359 54.9375 19.125 C53.60124196 18.41819684 52.28856226 17.66541985 51 16.875 C49.03481767 15.69035471 49.03481767 15.69035471 46.9375 15.125 C44.68080112 15.81670847 43.0270742 16.76984585 41.08984375 18.109375 C37.77694025 19.67263255 35.5738345 19.58472312 31.9375 19.125 C28.95739485 17.63368299 26.35345905 15.73952168 23.6875 13.75 C22.98109375 13.24210938 22.2746875 12.73421875 21.546875 12.2109375 C20.23772311 11.26874485 18.93338585 10.31979687 17.63574219 9.36181641 C14.48520813 6.84921481 14.48520813 6.84921481 10.6640625 6.19921875 C7.0217605 7.43593161 4.31300004 9.60861749 1.3125 11.9375 C-6.42435488 17.69046755 -14.13938337 22.00705481 -24.0625 21.125 C-24.0625 19.805 -24.0625 18.485 -24.0625 17.125 C-23.22847656 16.90585938 -22.39445312 16.68671875 -21.53515625 16.4609375 C-14.07921701 14.35995119 -8.17783888 11.87996204 -2.0625 7.125 C-1.051875 6.34125 -0.04125 5.5575 1 4.75 C1.9590625 3.945625 1.9590625 3.945625 2.9375 3.125 C-2.93595545 1.5184065 -6.77479778 3.51769983 -12.0625 6.125 C-13.40949073 7.00016347 -14.7439101 7.89510378 -16.0625 8.8125 C-20.47140868 11.75779555 -24.86114313 12.0077563 -30.0625 12.125 C-29.7325 10.805 -29.4025 9.485 -29.0625 8.125 C-29.0625 8.785 -29.0625 9.445 -29.0625 10.125 C-22.12077433 8.64582855 -16.73555808 6.71298009 -11.03515625 2.4296875 C-7.48230845 0.07988321 -4.18383645 -0.01262092 0 0 Z " fill="#E6E6E6" transform="translate(58.0625,176.875)"/>
<path d="M0 0 C0.495 1.98 0.495 1.98 1 4 C-0.65 4 -2.3 4 -4 4 C-3.34402832 4.35304199 -2.68805664 4.70608398 -2.01220703 5.06982422 C0.95218312 6.66789379 3.9136124 8.27137375 6.875 9.875 C7.90753906 10.43058594 8.94007813 10.98617187 10.00390625 11.55859375 C10.99003906 12.09355469 11.97617188 12.62851562 12.9921875 13.1796875 C13.90339355 13.67194824 14.81459961 14.16420898 15.75341797 14.67138672 C18 16 18 16 20 18 C20.125 20.625 20.125 20.625 20 23 C19.01 23 18.02 23 17 23 C17.33 21.68 17.66 20.36 18 19 C15.12978722 17.36643581 12.25303743 15.7447327 9.375 14.125 C8.56675781 13.66480469 7.75851563 13.20460938 6.92578125 12.73046875 C2.69619124 10.35777192 -1.30068672 8.32310762 -6 7 C-6.33 8.32 -6.66 9.64 -7 11 C4.385 16.94 4.385 16.94 16 23 C13 24 13 24 10.73046875 23.0390625 C9.89128906 22.57242188 9.05210937 22.10578125 8.1875 21.625 C4.37768409 19.6148791 1.30897432 18.50104353 -3 18 C-4.68375165 17.37774395 -6.35767228 16.72455635 -8 16 C-8.37705078 17.00353516 -8.37705078 17.00353516 -8.76171875 18.02734375 C-10.26788598 21.64309536 -12.00054764 25.09215057 -13.8125 28.5625 C-14.3084668 29.5515332 -14.3084668 29.5515332 -14.81445312 30.56054688 C-16.95527379 34.64906234 -18.83866855 37.72347352 -23 40 C-27.2159277 40.63570157 -31.44197649 40.50677402 -35.6953125 40.48828125 C-39.58683092 40.55217185 -42.27908292 40.60817488 -45.73828125 42.48828125 C-48.90103019 46.00062593 -51.5466491 49.77355658 -54.1875 53.6875 C-55.23958591 55.23573283 -56.29539475 56.78144438 -57.35546875 58.32421875 C-58.04612427 59.3464856 -58.04612427 59.3464856 -58.75073242 60.3894043 C-60 62 -60 62 -62 63 C-60.02510291 53.12551453 -53.8741582 43.5609748 -45.78125 37.6484375 C-41.51328754 35.41023323 -37.46541731 35.58445933 -32.75 35.8125 C-26.79721024 36.13085062 -26.79721024 36.13085062 -21 35 C-20.27834552 33.35639511 -19.62261284 31.68361975 -19 30 C-17.77668904 27.95481938 -16.54706383 25.91340762 -15.3125 23.875 C-12.10627133 18.08670603 -11.67172749 14.66809929 -12.7734375 8.25390625 C-13 6 -13 6 -11.4375 3.375 C-8.5576936 1.75049383 -6.29244965 1.21472498 -3 1 C-2.34 1.33 -1.68 1.66 -1 2 C-0.67 1.34 -0.34 0.68 0 0 Z " fill="#878787" transform="translate(153,43)"/>
<path d="M0 0 C3.24581906 0.55117682 5.88287685 1.26627166 8.76953125 2.84765625 C9.76049805 3.38422852 9.76049805 3.38422852 10.77148438 3.93164062 C11.44501953 4.30482422 12.11855469 4.67800781 12.8125 5.0625 C13.50537109 5.43955078 14.19824219 5.81660156 14.91210938 6.20507812 C16.61128985 7.13083852 18.30609425 8.06462312 20 9 C19.67 9.99 19.34 10.98 19 12 C18.53851563 11.69707031 18.07703125 11.39414063 17.6015625 11.08203125 C12.25147825 7.64571231 6.7262129 4.75750007 1 2 C0.62101562 3.26457031 0.62101562 3.26457031 0.234375 4.5546875 C-1.10417208 8.29075879 -2.8085008 11.67920943 -4.75 15.125 C-5.23339844 16.03572266 -5.23339844 16.03572266 -5.7265625 16.96484375 C-8.16651348 21.30568676 -10.49327728 23.86157878 -15 26 C-18.77822456 26.38006873 -22.50780887 26.00139471 -26.27929688 25.66796875 C-30.32590487 25.46957208 -33.17838629 25.62436933 -36.46484375 28.12890625 C-41.74884718 33.32394315 -45.60772039 39.87867327 -49.625 46.0625 C-50.52004693 47.42467287 -51.41564186 48.78648581 -52.31176758 50.14794922 C-59.41518566 60.97220535 -66.2949703 71.92472774 -73 83 C-74.49929433 85.4691788 -75.99975112 87.93765108 -77.5 90.40625 C-79.81687521 94.2191581 -82.13251193 98.0327935 -84.44213867 101.85009766 C-84.79659058 102.43553345 -85.15104248 103.02096924 -85.51623535 103.62414551 C-86.48421641 105.22325344 -87.45148195 106.82279444 -88.41870117 108.42236328 C-89.57405896 110.30568388 -90.77440776 112.16161165 -92 114 C-88.37 114.33 -84.74 114.66 -81 115 C-81 115.33 -81 115.66 -81 116 C-85.95 116.33 -90.9 116.66 -96 117 C-94.56271412 113.40678531 -93.2864701 110.62039925 -91.3046875 107.39453125 C-90.48979858 106.06180176 -90.48979858 106.06180176 -89.65844727 104.70214844 C-88.77564087 103.27177246 -88.77564087 103.27177246 -87.875 101.8125 C-86.95642212 100.31444824 -86.95642212 100.31444824 -86.01928711 98.78613281 C-84.7042456 96.64295489 -83.38736929 94.50090193 -82.06884766 92.35986328 C-80.31815758 89.51669632 -78.57082138 86.67153361 -76.82562256 83.82499695 C-75.07255327 80.96586274 -73.31756365 78.10791049 -71.5625 75.25 C-70.9132959 74.19272705 -70.2640918 73.1354541 -69.59521484 72.04614258 C-65.45789811 65.32446194 -61.25711205 58.64645006 -57 52 C-58.65 53.32 -60.3 54.64 -62 56 C-60.61219205 52.10993227 -58.7847773 49.03441292 -56.375 45.6875 C-55.74335937 44.80449219 -55.11171875 43.92148438 -54.4609375 43.01171875 C-53.97882813 42.34785156 -53.49671875 41.68398437 -53 41 C-53 41.99 -53 42.98 -53 44 C-52.67 44.33 -52.34 44.66 -52 45 C-51.41992188 44.14277344 -50.83984375 43.28554687 -50.2421875 42.40234375 C-39.1013634 26.0506817 -39.1013634 26.0506817 -35 24 C-33.53771865 23.89543564 -32.0713387 23.84485226 -30.60546875 23.82421875 C-29.73212891 23.80037109 -28.85878906 23.77652344 -27.95898438 23.75195312 C-26.12327728 23.70926226 -24.28727008 23.67786156 -22.45117188 23.65820312 C-18.55040551 23.53496069 -15.70090394 23.35826148 -12.1953125 21.56640625 C-8.98191463 17.80981835 -6.88514559 13.65831426 -4.6875 9.25 C-4.23310547 8.36183594 -3.77871094 7.47367187 -3.31054688 6.55859375 C-2.19652703 4.37746016 -1.09350648 2.19146976 0 0 Z " fill="#E4E4E4" transform="translate(145,59)"/>
<path d="M0 0 C6.18670914 2.34938322 11.78050924 5.76149526 17.34375 9.3125 C18.24738281 8.72339844 19.15101562 8.13429687 20.08203125 7.52734375 C21.27309365 6.76768978 22.46451895 6.00860457 23.65625 5.25 C24.25115234 4.86005859 24.84605469 4.47011719 25.45898438 4.06835938 C27.03984635 3.07038505 28.68969712 2.18381304 30.34375 1.3125 C31.33375 1.6425 32.32375 1.9725 33.34375 2.3125 C35.51314744 2.3125 37.68301723 2.30298783 39.8515625 2.2421875 C40.71523437 2.22414062 41.57890625 2.20609375 42.46875 2.1875 C43.33757812 2.16429687 44.20640625 2.14109375 45.1015625 2.1171875 C47.34375 2.3125 47.34375 2.3125 49.34375 4.3125 C47.34375 5.3125 47.34375 5.3125 44.84375 4.6875 C37.4034774 3.89032794 30.89902089 7.22308902 24.7421875 11.12890625 C24.28070313 11.51949219 23.81921875 11.91007813 23.34375 12.3125 C23.34375 12.9725 23.34375 13.6325 23.34375 14.3125 C28.25910146 15.66422165 31.04124279 14.95191158 35.51171875 12.90625 C37.34375 12.3125 37.34375 12.3125 40.34375 13.3125 C32.09591138 19.72748559 32.09591138 19.72748559 27.09375 19.9375 C22.93801694 19.24487782 21.46629524 18.0013584 18.34375 15.3125 C15.23969204 15.49509164 14.00210987 16.54026009 11.34375 18.3125 C10.35375 17.9825 9.36375 17.6525 8.34375 17.3125 C9.00375 16.6525 9.66375 15.9925 10.34375 15.3125 C10.34375 14.3225 10.34375 13.3325 10.34375 12.3125 C8.1402694 11.1564273 5.93171844 10.01265279 3.71875 8.875 C3.10128906 8.54951172 2.48382813 8.22402344 1.84765625 7.88867188 C-4.30110127 4.74956935 -8.91460569 3.86786193 -15.65625 5.3125 C-15.98625 4.6525 -16.31625 3.9925 -16.65625 3.3125 C-14.06108479 2.01491739 -12.11441973 2.17980898 -9.21875 2.1875 C-8.25066406 2.18492187 -7.28257813 2.18234375 -6.28515625 2.1796875 C-3.65625 2.3125 -3.65625 2.3125 -0.65625 3.3125 C-0.65625 2.6525 -0.65625 1.9925 -0.65625 1.3125 C-6.59625 1.3125 -12.53625 1.3125 -18.65625 1.3125 C-12.66411829 -1.68356585 -6.49147846 -1.68014737 0 0 Z " fill="#9A9A9A" transform="translate(88.65625,174.6875)"/>
<path d="M0 0 C0.33 0.66 0.66 1.32 1 2 C0.525625 2.886875 0.05125 3.77375 -0.4375 4.6875 C-2.3521261 8.74650732 -2.81452583 10.55713182 -2 15 C-0.14080044 17.7276692 1.87620507 20.18887137 4.0546875 22.66796875 C7.93161645 27.31561249 8.53409635 30.97286924 8 37 C7.19784905 39.62063793 6.37019289 41.95371545 5.2890625 44.4453125 C5.00502563 45.13004639 4.72098877 45.81478027 4.42834473 46.52026367 C3.50788452 48.7280206 2.5671312 50.92641462 1.625 53.125 C0.98593164 54.64399656 0.34775331 56.16336786 -0.28955078 57.68310547 C-5.29287977 69.56072226 -10.53028977 81.32960444 -16 93 C-18.95433246 84.13700261 -11.2154999 72.12343433 -7.5625 63.9375 C-6.41521773 61.34365841 -5.27177761 58.74813142 -4.12890625 56.15234375 C-3.85547897 55.53235504 -3.5820517 54.91236633 -3.30033875 54.27359009 C2.9305723 42.08603247 2.9305723 42.08603247 3 29.125 C1.15863224 26.08945661 1.15863224 26.08945661 -0.76171875 23.94140625 C-4.81062313 19.2026277 -6.7979909 16.281973 -6.34375 9.9453125 C-5.5114608 5.23531226 -3.39963312 3.22529296 0 0 Z " fill="#7D7D7D" transform="translate(159,81)"/>
<path d="M0 0 C3 1 3 1 4 3 C4.41691743 6.75225691 4.27593327 8.54011122 2.3125 11.8125 C0 14 0 14 -2.34765625 14.12109375 C-6.08868584 15.36075746 -6.82294 17.48882693 -8.58984375 20.88671875 C-8.97269531 21.66660156 -9.35554688 22.44648437 -9.75 23.25 C-10.14832031 24.01441406 -10.54664063 24.77882813 -10.95703125 25.56640625 C-13.75759093 31.03086106 -13.75759093 31.03086106 -15 37 C-13.19924176 41.02522429 -10.24645649 44.11708018 -7.3046875 47.3515625 C-3.82993821 51.7418146 -4.49054356 57.72324592 -5 63 C-6.06543657 66.99469168 -7.61131125 70.70926499 -9.25 74.5 C-9.90814697 76.08687622 -9.90814697 76.08687622 -10.57958984 77.70581055 C-13.07721795 83.67226959 -15.69334108 89.58502171 -18.3359375 95.48828125 C-18.61083008 96.10303314 -18.88572266 96.71778503 -19.16894531 97.35116577 C-20.51091078 100.34664564 -21.86581211 103.3352065 -23.23925781 106.31640625 C-23.73006836 107.3940625 -24.22087891 108.47171875 -24.7265625 109.58203125 C-25.16564941 110.53311768 -25.60473633 111.4842041 -26.05712891 112.46411133 C-27.23233429 115.17395528 -27.23233429 115.17395528 -27 119 C-30.32534757 120.10844919 -32.62182575 119.84454356 -36 119 C-35.566875 118.29875 -35.13375 117.5975 -34.6875 116.875 C-32.98498914 113.97442594 -31.47551433 111.02129125 -30 108 C-29.67 109.32 -29.34 110.64 -29 112 C-23.96429993 102.42031295 -19.81676464 92.5803398 -15.75 82.5625 C-15.12021468 81.02131145 -14.49000863 79.48029476 -13.859375 77.93945312 C-12.23321511 73.96219309 -10.6131459 69.98255817 -9 66 C-8.6174707 65.09757568 -8.23494141 64.19515137 -7.84082031 63.26538086 C-6.54132766 59.76422164 -6.24798801 56.62391987 -7 53 C-9.22855606 48.66589261 -12.11467029 44.97852231 -15.375 41.375 C-17.65532048 38.04222391 -17.47918586 35.97039712 -17 32 C-16.16137044 29.54161736 -15.14714395 27.34208557 -14 25 C-15.32 26.32 -16.64 27.64 -18 29 C-16.45454854 23.52067211 -13.84456788 18.88570819 -11 14 C-10.01 15.485 -10.01 15.485 -9 17 C-8.814375 16.38125 -8.62875 15.7625 -8.4375 15.125 C-6.30061462 11.96612595 -3.58575921 11.91273871 0 11 C1.81896973 7.36206054 1.25254202 3.75762607 0 0 Z " fill="#E5E5E5" transform="translate(173,57)"/>
<path d="M0 0 C5.34869922 -0.50939993 7.85589601 0.63291551 12 4 C16.80176671 9.02562529 19.44509451 12.38427992 19.43359375 19.46875 C18.64978516 24.04449745 15.83514372 27.43075656 13 31 C14.77119803 30.85866501 16.54195287 30.71176792 18.3125 30.5625 C19.29863281 30.48128906 20.28476563 30.40007812 21.30078125 30.31640625 C24.09375599 30.08187441 24.09375599 30.08187441 27 29 C25.39369175 33.24292532 23.4231838 37.27025107 21.375 41.3125 C21.05015625 41.95767578 20.7253125 42.60285156 20.390625 43.26757812 C19.59558044 44.84597541 18.79804366 46.42311694 18 48 C16.694761 44.08428299 17.67760152 42.96107003 19.4375 39.3125 C19.91058594 38.31863281 20.38367188 37.32476562 20.87109375 36.30078125 C21.24363281 35.54152344 21.61617187 34.78226563 22 34 C20.741875 34.2475 19.48375 34.495 18.1875 34.75 C12.30759836 35.42198876 7.19039776 33.73272224 2 31 C1.34 30.01 0.68 29.02 0 28 C0.721875 28.144375 1.44375 28.28875 2.1875 28.4375 C3.115625 28.623125 4.04375 28.80875 5 29 C6.66666667 29.33333333 8.33333333 29.66666667 10 30 C10.99 28.68 11.98 27.36 13 26 C12.13375 25.9175 11.2675 25.835 10.375 25.75 C5.55639098 24.679198 1.00772727 22.01030303 -2 18 C-2 16.68 -2 15.36 -2 14 C-2.66 13.67 -3.32 13.34 -4 13 C-3.01 12.34 -2.02 11.68 -1 11 C-0.01 13.31 0.98 15.62 2 18 C3.32 17.67 4.64 17.34 6 17 C6.25030977 14.58380177 6.25030977 14.58380177 6 12 C3.08235 10.0549 1.37462715 9.54723683 -2 9 C-2 8.67 -2 8.34 -2 8 C5.35678392 7.63819095 5.35678392 7.63819095 8 9.125 C9.45670212 11.85631647 9.32339354 13.96010077 9 17 C8.34 17.66 7.68 18.32 7 19 C7 19.99 7 20.98 7 22 C9.73247348 23.36623674 11.98198902 23.128426 15 23 C16.52951026 21.47048974 16.3539351 20.06639586 16.5 17.9375 C16.45869499 12.75785147 14.41889388 10.25730346 10.875 6.65625 C8.70893241 4.74289029 6.60098018 3.26534171 4 2 C3.236875 1.608125 2.47375 1.21625 1.6875 0.8125 C1.130625 0.544375 0.57375 0.27625 0 0 Z " fill="#333333" transform="translate(117,110)"/>
<path d="M0 0 C0.85722656 -0.00257813 1.71445312 -0.00515625 2.59765625 -0.0078125 C4.9375 0.125 4.9375 0.125 7.9375 1.125 C7.9375 1.785 7.9375 2.445 7.9375 3.125 C9.5875 3.125 11.2375 3.125 12.9375 3.125 C-10.77273359 22.30631257 -10.77273359 22.30631257 -24.0625 21.125 C-24.0625 19.805 -24.0625 18.485 -24.0625 17.125 C-23.22847656 16.90585938 -22.39445312 16.68671875 -21.53515625 16.4609375 C-14.07921701 14.35995119 -8.17783888 11.87996204 -2.0625 7.125 C-1.051875 6.34125 -0.04125 5.5575 1 4.75 C1.9590625 3.945625 1.9590625 3.945625 2.9375 3.125 C-2.93595545 1.5184065 -6.77479778 3.51769983 -12.0625 6.125 C-13.40949073 7.00016347 -14.7439101 7.89510378 -16.0625 8.8125 C-20.47140868 11.75779555 -24.86114313 12.0077563 -30.0625 12.125 C-29.7325 10.805 -29.4025 9.485 -29.0625 8.125 C-29.0625 8.785 -29.0625 9.445 -29.0625 10.125 C-22.12077433 8.64582855 -16.73555808 6.71298009 -11.03515625 2.4296875 C-7.48230845 0.07988321 -4.18383645 -0.01262092 0 0 Z " fill="#E8E8E8" transform="translate(58.0625,176.875)"/>
<path d="M0 0 C5.77251858 0.55863083 9.83327516 2.79266325 14.375 6.3125 C16.3029413 8.96341929 16.25051733 10.14085698 15.875 13.375 C14.40625 15.8828125 14.40625 15.8828125 12.375 18.5 C11.653125 19.44746094 10.93125 20.39492188 10.1875 21.37109375 C9.424375 22.36238281 8.66125 23.35367188 7.875 24.375 C6.36895588 26.4330907 4.86864922 28.49539617 3.375 30.5625 C2.20833333 32.16666667 1.04166667 33.77083333 -0.125 35.375 C-3.73721644 34.22612887 -7.13275797 32.99167691 -10.5 31.25 C-11.18835938 30.89679687 -11.87671875 30.54359375 -12.5859375 30.1796875 C-13.09382812 29.91414063 -13.60171875 29.64859375 -14.125 29.375 C-12.32961716 22.96516828 -10.24450483 16.66169417 -8.0625 10.375 C-7.8051709 9.620979 -7.5478418 8.86695801 -7.28271484 8.09008789 C-4.63915034 0.55669804 -4.63915034 0.55669804 0 0 Z M-1.125 1.375 C-3.52632538 4.30563372 -4.90406492 7.01433058 -6.16796875 10.578125 C-6.51923828 11.5578125 -6.87050781 12.5375 -7.23242188 13.546875 C-7.58884766 14.56265625 -7.94527344 15.5784375 -8.3125 16.625 C-8.68052734 17.65625 -9.04855469 18.6875 -9.42773438 19.75 C-10.33303145 22.28953465 -11.23186478 24.83116801 -12.125 27.375 C-9.40514807 30.2481967 -6.81781006 31.86773059 -3.125 33.375 C-0.66861003 33.10354469 0.50529232 32.75187816 2.24707031 30.97631836 C2.64506836 30.39503174 3.04306641 29.81374512 3.453125 29.21484375 C3.89140625 28.58642578 4.3296875 27.95800781 4.78125 27.31054688 C5.2246875 26.65119141 5.668125 25.99183594 6.125 25.3125 C6.58390625 24.64927734 7.0428125 23.98605469 7.515625 23.30273438 C8.64535676 21.66697693 9.76151173 20.02185766 10.875 18.375 C8.85333874 17.35281172 6.82915114 16.35398948 4.76953125 15.41015625 C4.08246094 15.08917969 3.39539063 14.76820312 2.6875 14.4375 C1.99269531 14.11910156 1.29789063 13.80070312 0.58203125 13.47265625 C-1.125 12.375 -1.125 12.375 -2.125 9.375 C-0.805 9.375 0.515 9.375 1.875 9.375 C1.875 8.715 1.875 8.055 1.875 7.375 C3.421875 8.0865625 3.421875 8.0865625 5 8.8125 C8.26034162 10.22022388 11.33551083 10.94335498 14.875 11.375 C12.85032126 6.53023301 9.46445936 4.63573368 4.875 2.375 C1.56515417 1.51280226 1.56515417 1.51280226 -1.125 1.375 Z " fill="#E0E0E0" transform="translate(169.125,19.625)"/>
<path d="M0 0 C2.76436144 1.38218072 3.42175944 3.54867078 4.87890625 6.1640625 C8.82957143 12.63379293 15.5107221 16.66773026 22.4375 19.3125 C26.68939042 20.13304026 30.68722602 20.17603159 35 20 C34.690625 20.9075 34.38125 21.815 34.0625 22.75 C33.28175145 25.13817205 32.60938416 27.56246334 32 30 C34.64 25.05 37.28 20.1 40 15 C38.35 15.66 36.7 16.32 35 17 C35.66 16.01 36.32 15.02 37 14 C39.625 13.8125 39.625 13.8125 42 14 C41.3979468 17.8588702 40.23989556 20.82735575 38.41796875 24.2734375 C37.89783203 25.2634375 37.37769531 26.2534375 36.84179688 27.2734375 C36.29587891 28.29695313 35.74996094 29.32046875 35.1875 30.375 C34.65318359 31.39078125 34.11886719 32.4065625 33.56835938 33.453125 C30.80326949 38.69081064 27.97802346 43.88039551 25 49 C27.64 49.33 30.28 49.66 33 50 C33 50.33 33 50.66 33 51 C31.18757948 51.02687279 29.37504767 51.04633715 27.5625 51.0625 C26.55316406 51.07410156 25.54382813 51.08570313 24.50390625 51.09765625 C22 51 22 51 21 50 C20.67 50.66 20.34 51.32 20 52 C19.34 52 18.68 52 18 52 C19.27712554 47.89306101 20.81290994 44.18406415 22.8203125 40.3828125 C23.35527344 39.36445313 23.89023438 38.34609375 24.44140625 37.296875 C24.99699219 36.25015625 25.55257812 35.2034375 26.125 34.125 C26.68832031 33.05507812 27.25164062 31.98515625 27.83203125 30.8828125 C29.21734739 28.25305983 30.60677596 25.62556917 32 23 C30.77567261 22.8138916 30.77567261 22.8138916 29.52661133 22.62402344 C27.91435669 22.36927246 27.91435669 22.36927246 26.26953125 22.109375 C24.67395386 21.8613916 24.67395386 21.8613916 23.04614258 21.60839844 C15.114193 20.02416999 8.30007763 15.39176997 3.453125 8.94140625 C0 3.65502107 0 3.65502107 0 0 Z " fill="#BBBBBB" transform="translate(104,124)"/>
<path d="M0 0 C-1.64242085 4.87481951 -4.37769039 8.82132125 -7.234375 13.046875 C-7.75002014 13.81751282 -8.26566528 14.58815063 -8.79693604 15.38214111 C-10.44363107 17.84102753 -12.09667888 20.29556526 -13.75 22.75 C-14.84678116 24.38513033 -15.94313966 26.02054426 -17.0390625 27.65625 C-22.15833602 35.29420377 -22.15833602 35.29420377 -24.55749512 38.83239746 C-25.59076738 40.38506019 -26.5981225 41.95509253 -27.5880127 43.5357666 C-28.11100952 44.36088745 -28.63400635 45.1860083 -29.17285156 46.03613281 C-29.64289612 46.79404114 -30.11294067 47.55194946 -30.597229 48.33282471 C-31.06014343 48.88299255 -31.52305786 49.4331604 -32 50 C-32.99 50 -33.98 50 -35 50 C-34.34716522 46.3983882 -32.8294246 43.87187369 -30.859375 40.80859375 C-30.20670654 39.78967041 -29.55403809 38.77074707 -28.8815918 37.72094727 C-28.1781665 36.63740967 -27.47474121 35.55387207 -26.75 34.4375 C-26.03432861 33.32882568 -25.31865723 32.22015137 -24.58129883 31.07788086 C-20.01887034 24.0271663 -15.39650446 17.01625717 -10.6875 10.0625 C-10.15543945 9.27093506 -9.62337891 8.47937012 -9.07519531 7.66381836 C-8.57987305 6.94073486 -8.08455078 6.21765137 -7.57421875 5.47265625 C-7.14713623 4.84625244 -6.72005371 4.21984863 -6.2800293 3.57446289 C-4.47843735 1.358467 -2.93187997 0 0 0 Z " fill="#8F8F8F" transform="translate(99,125)"/>
<path d="M0 0 C0.66 0.33 1.32 0.66 2 1 C2 1.99 2 2.98 2 4 C-0.33921213 5.16960607 -1.78880245 5.13910314 -4.39453125 5.17578125 C-5.70454102 5.21155273 -5.70454102 5.21155273 -7.04101562 5.24804688 C-8.87672272 5.29073774 -10.71272992 5.32213844 -12.54882812 5.34179688 C-16.47186562 5.46574295 -19.26927463 5.60142253 -22.75 7.5 C-25.90776434 11.00862704 -28.55004554 14.77859036 -31.1875 18.6875 C-32.23958591 20.23573283 -33.29539475 21.78144438 -34.35546875 23.32421875 C-35.04612427 24.3464856 -35.04612427 24.3464856 -35.75073242 25.3894043 C-37 27 -37 27 -39 28 C-37.02505915 18.12529573 -30.8746497 8.56999893 -22.7890625 2.6484375 C-18.48846501 0.39190099 -14.37533742 0.5853769 -9.625 0.8125 C-6.74836541 0.90536773 -3.87842501 0.96735807 -1 1 C-0.67 0.67 -0.34 0.34 0 0 Z " fill="#787878" transform="translate(130,78)"/>
<path d="M0 0 C0 3 0 3 -1 6 C-0.01 6 0.98 6 2 6 C2 9 2 9 0.67123413 10.43792725 C-0.15602676 11.21115326 -0.15602676 11.21115326 -1 12 C-1.94578497 13.30813629 -2.85658523 14.64195843 -3.73974609 15.99316406 C-4.26394135 16.79119446 -4.7881366 17.58922485 -5.32821655 18.41143799 C-5.88763947 19.2708197 -6.44706238 20.13020142 -7.0234375 21.015625 C-7.6066275 21.90481628 -8.1898175 22.79400757 -8.79067993 23.71014404 C-10.65551586 26.55455553 -12.51551304 29.40208942 -14.375 32.25 C-16.22808358 35.08313532 -18.08220803 37.91557959 -19.93789673 40.74700928 C-21.09158093 42.50782776 -22.24366489 44.2696961 -23.39389038 46.03277588 C-26.49346279 50.76913105 -29.67531483 55.41863777 -33 60 C-32.67 60.66 -32.34 61.32 -32 62 C-33.32 61.67 -34.64 61.34 -36 61 C-29.8208946 49.83572287 -22.67003556 39.33470729 -15.5625 28.75 C-14.34147268 26.92599823 -13.120767 25.10178111 -11.90039062 23.27734375 C-8.93729589 18.84907382 -5.97024733 14.42347511 -3 10 C-4.98 10.99 -4.98 10.99 -7 12 C-5.44298069 7.32894208 -2.91552627 3.91294315 0 0 Z " fill="#E1E1E1" transform="translate(102,115)"/>
<path d="M0 0 C2.33746522 -0.30300475 4.67085177 -0.63858045 7 -1 C10.86203152 -1.19238902 14.2884095 -1.23719683 18 0 C18 0.66 18 1.32 18 2 C17.00097656 1.98839844 16.00195312 1.97679687 14.97265625 1.96484375 C13.68230469 1.95582031 12.39195313 1.94679687 11.0625 1.9375 C9.13083984 1.92009766 9.13083984 1.92009766 7.16015625 1.90234375 C4.13701597 1.63467451 4.13701597 1.63467451 3 3 C4.010625 3.391875 5.02125 3.78375 6.0625 4.1875 C11.08725913 6.34387436 15.36965906 9.27375665 19.125 13.25 C21.37339782 15.34850464 22.98598518 15.66510946 26 16 C26 16.66 26 17.32 26 18 C21.49430429 18.75461245 19.07355722 17.6572847 15.43359375 15.19140625 C13.7583168 13.99553662 12.0931728 12.78536738 10.4375 11.5625 C8.7750032 10.34794306 7.1071921 9.14061964 5.43359375 7.94140625 C4.33615845 7.13231812 4.33615845 7.13231812 3.21655273 6.30688477 C0.79454424 4.8788628 -1.23229827 4.39364896 -4 4 C-4 3.34 -4 2.68 -4 2 C-10.93 1.505 -10.93 1.505 -18 1 C-18 0.67 -18 0.34 -18 0 C-11.76659245 -0.6556173 -6.19247678 -1.1520887 0 0 Z " fill="#7C7C7C" transform="translate(70,176)"/>
<path d="M0 0 C4.33350041 1.30797726 7.3087185 3.70002083 10.5625 6.7734375 C11.09230469 7.24007812 11.62210938 7.70671875 12.16796875 8.1875 C15.10070429 11.12845049 15.89088556 13.51187722 16 17.5234375 C15.88649299 21.44944451 15.88649299 21.44944451 13.5625 23.7734375 C9.50988713 24.11834072 8.01495824 24.07507632 4.5625 21.7734375 C5.4375 17.8984375 5.4375 17.8984375 6.5625 16.7734375 C6.97952122 13.8576684 6.97952122 13.8576684 6.5625 10.7734375 C3.93021463 7.94616803 1.3220188 7.29559289 -2.4375 6.7734375 C-2.4375 6.4434375 -2.4375 6.1134375 -2.4375 5.7734375 C1.39723284 5.41671817 3.11592875 5.47572334 6.375 7.6484375 C8.99465568 10.19324587 9.49701947 11.02041146 9.8125 14.6484375 C9.53887294 18.06877572 8.84889008 19.29651491 6.5625 21.7734375 C8.56204746 21.81598106 10.56291636 21.81424533 12.5625 21.7734375 C13.8541351 20.68870338 13.8541351 20.68870338 13.875 18.0859375 C13.42369222 13.30207501 11.51158779 10.42130263 7.84375 7.3203125 C2.81802201 3.61490288 -1.0270859 2.2010791 -7.4375 2.7734375 C-9.55420357 4.23385516 -9.55420357 4.23385516 -10.4375 6.7734375 C-10.68813732 10.44058599 -10.68813732 10.44058599 -10.4375 13.7734375 C-9.7775 13.7734375 -9.1175 13.7734375 -8.4375 13.7734375 C-8.4375 14.4334375 -8.4375 15.0934375 -8.4375 15.7734375 C-9.4275 15.4434375 -10.4175 15.1134375 -11.4375 14.7734375 C-13.05606529 11.53630692 -12.99841992 8.27250938 -12.4375 4.7734375 C-9.15178768 -0.59322595 -5.80899393 -0.91629964 0 0 Z " fill="#E5E5E5" transform="translate(118.4375,110.2265625)"/>
<path d="M0 0 C0.87785156 0.01546875 1.75570312 0.0309375 2.66015625 0.046875 C4.9375 0.25 4.9375 0.25 6.9375 1.25 C6.9375 2.24 6.9375 3.23 6.9375 4.25 C3.3075 4.25 -0.3225 4.25 -4.0625 4.25 C-7.74673013 12.80995596 -11.00393568 21.4517469 -14.0625 30.25 C-14.7225 30.25 -15.3825 30.25 -16.0625 30.25 C-16.60365344 23.75615867 -14.7322539 18.94697607 -12.25 13 C-11.89357422 12.1028125 -11.53714844 11.205625 -11.16992188 10.28125 C-6.89302434 -0.20303459 -6.89302434 -0.20303459 0 0 Z " fill="#797979" transform="translate(170.0625,16.75)"/>
<path d="M0 0 C3.24581906 0.55117682 5.88287685 1.26627166 8.76953125 2.84765625 C9.76049805 3.38422852 9.76049805 3.38422852 10.77148438 3.93164062 C11.44501953 4.30482422 12.11855469 4.67800781 12.8125 5.0625 C13.50537109 5.43955078 14.19824219 5.81660156 14.91210938 6.20507812 C16.61128985 7.13083852 18.30609425 8.06462312 20 9 C19.67 9.99 19.34 10.98 19 12 C18.53851563 11.69707031 18.07703125 11.39414063 17.6015625 11.08203125 C12.25147825 7.64571231 6.7262129 4.75750007 1 2 C0.62101562 3.26457031 0.62101562 3.26457031 0.234375 4.5546875 C-1.10417208 8.29075879 -2.8085008 11.67920943 -4.75 15.125 C-5.23339844 16.03572266 -5.23339844 16.03572266 -5.7265625 16.96484375 C-8.17765843 21.32551441 -10.4633731 23.87312873 -15 26 C-18.4794782 26.44828962 -21.87457309 26.37983038 -25.375 26.25 C-26.76525391 26.22292969 -26.76525391 26.22292969 -28.18359375 26.1953125 C-30.45681435 26.14844197 -32.72785407 26.08285525 -35 26 C-35 25.34 -35 24.68 -35 24 C-34.42032471 23.9906543 -33.84064941 23.98130859 -33.2434082 23.97167969 C-30.59893054 23.9177593 -27.95618107 23.83415871 -25.3125 23.75 C-23.94448242 23.72873047 -23.94448242 23.72873047 -22.54882812 23.70703125 C-18.62209811 23.56424107 -15.71550127 23.36570065 -12.1875 21.5625 C-8.98052283 17.80575532 -6.88341224 13.6548373 -4.6875 9.25 C-4.23310547 8.36183594 -3.77871094 7.47367187 -3.31054688 6.55859375 C-2.19652703 4.37746016 -1.09350648 2.19146976 0 0 Z " fill="#E4E4E4" transform="translate(145,59)"/>
<path d="M0 0 C4.44630022 2.31426282 9.08224805 3.1091206 14 3.875 C14 3.215 14 2.555 14 1.875 C12.02 1.875 10.04 1.875 8 1.875 C8 1.545 8 1.215 8 0.875 C10.31 0.875 12.62 0.875 15 0.875 C15.495 3.35 15.495 3.35 16 5.875 C7.94972626 6.47131657 2.3272387 3.90026546 -4.87109375 0.53125 C-13.12513178 -3.68192795 -13.12513178 -3.68192795 -22 -3.125 C-16.06 0.835 -16.06 0.835 -10 4.875 C-10.99 5.37 -10.99 5.37 -12 5.875 C-13.96298601 4.61136527 -15.92024934 3.3388372 -17.875 2.0625 C-18.96554688 1.35480469 -20.05609375 0.64710938 -21.1796875 -0.08203125 C-24 -2.125 -24 -2.125 -26 -5.125 C-16.3884801 -8.32883997 -8.3992397 -4.50443097 0 0 Z " fill="#EAEAEA" transform="translate(171,183.125)"/>
<path d="M0 0 C0.83265381 0.00523682 1.66530762 0.01047363 2.52319336 0.01586914 C3.42231445 0.0190918 4.32143555 0.02231445 5.24780273 0.02563477 C6.66609375 0.03820312 6.66609375 0.03820312 8.11303711 0.05102539 C9.06243164 0.05553711 10.01182617 0.06004883 10.98999023 0.06469727 C13.34356776 0.07652429 15.69702188 0.09300514 18.05053711 0.11352539 C18.38053711 1.76352539 18.71053711 3.41352539 19.05053711 5.11352539 C12.12053711 5.11352539 5.19053711 5.11352539 -1.94946289 5.11352539 C-2.27946289 3.79352539 -2.60946289 2.47352539 -2.94946289 1.11352539 C-1.94946289 0.11352539 -1.94946289 0.11352539 0 0 Z " fill="#ABABAB" transform="translate(5.949462890625,183.886474609375)"/>
<path d="M0 0 C0.66 0 1.32 0 2 0 C0.5701723 3.16553893 -1.19068459 5.54830934 -3.4375 8.1875 C-9.28003194 15.34271867 -14.07646223 23.19836479 -19 31 C-19.66 29.68 -20.32 28.36 -21 27 C-22.32 28.32 -23.64 29.64 -25 31 C-23.61219205 27.10993227 -21.7847773 24.03441292 -19.375 20.6875 C-18.74335937 19.80449219 -18.11171875 18.92148438 -17.4609375 18.01171875 C-16.73777344 17.01591797 -16.73777344 17.01591797 -16 16 C-16 16.99 -16 17.98 -16 19 C-15.67 19.33 -15.34 19.66 -15 20 C-14.12988281 18.71416016 -14.12988281 18.71416016 -13.2421875 17.40234375 C-4.85825878 5.09524702 -4.85825878 5.09524702 0 0 Z " fill="#EAEAEA" transform="translate(108,84)"/>
<path d="M0 0 C8.18825629 -0.49877703 13.78266841 0.18407975 21 4 C23.01623653 4.92673372 25.03719248 5.84326156 27.0625 6.75 C28.70850584 7.49962132 30.35440182 8.24948419 32 9 C32 9.66 32 10.32 32 11 C33.98 11 35.96 11 38 11 C38 11.66 38 12.32 38 13 C27.80949835 13.88613058 18.61843846 8.09587425 9.9375 3.3125 C6.60942831 1.82548924 3.61240997 1.361241 0 1 C0 0.67 0 0.34 0 0 Z " fill="#6B6B6B" transform="translate(147,174)"/>
<path d="M0 0 C0.66 0.33 1.32 0.66 2 1 C1.61368408 1.61705811 1.22736816 2.23411621 0.8293457 2.86987305 C-0.33904512 4.73657275 -1.50714891 6.60345211 -2.67504883 8.47045898 C-4.02462508 10.62784904 -5.37472891 12.78490915 -6.7253418 14.94165039 C-10.11385891 20.35842395 -13.4877385 25.78297452 -16.8203125 31.234375 C-17.70456909 32.67744019 -17.70456909 32.67744019 -18.60668945 34.1496582 C-19.72919154 35.98418681 -20.8476352 37.82120588 -21.96166992 39.66088867 C-22.71734253 40.89415894 -22.71734253 40.89415894 -23.48828125 42.15234375 C-23.92696533 42.87413818 -24.36564941 43.59593262 -24.81762695 44.33959961 C-26 46 -26 46 -28 47 C-26.68956071 42.60291129 -24.97377616 39.00333501 -22.55078125 35.11328125 C-21.86693359 34.00919922 -21.18308594 32.90511719 -20.47851562 31.76757812 C-19.75660995 30.61582303 -19.03460436 29.46413055 -18.3125 28.3125 C-17.61705078 27.19166016 -16.92160156 26.07082031 -16.20507812 24.91601562 C-14.14659283 21.60437215 -12.07623465 18.30054013 -10 15 C-9.34821777 13.96278809 -8.69643555 12.92557617 -8.02490234 11.85693359 C-5.46277868 7.80186592 -2.9264181 3.80439841 0 0 Z " fill="#3E3E3E" transform="translate(87,110)"/>
<path d="M0 0 C2.625 -0.1875 2.625 -0.1875 5 0 C4.3979468 3.8588702 3.23989556 6.82735575 1.41796875 10.2734375 C0.89783203 11.2634375 0.37769531 12.2534375 -0.15820312 13.2734375 C-0.97708008 14.80871094 -0.97708008 14.80871094 -1.8125 16.375 C-2.34681641 17.39078125 -2.88113281 18.4065625 -3.43164062 19.453125 C-6.19673051 24.69081064 -9.02197654 29.88039551 -12 35 C-9.36 35.33 -6.72 35.66 -4 36 C-4 36.33 -4 36.66 -4 37 C-7.63 37 -11.26 37 -15 37 C-13.649616 32.61413391 -11.93261712 28.68037664 -9.8125 24.61328125 C-9.50932861 24.02959274 -9.20615723 23.44590424 -8.89379883 22.8445282 C-8.25711154 21.6207796 -7.61832838 20.39811933 -6.97753906 19.17651367 C-5.99847053 17.30958354 -5.0260593 15.4393038 -4.0546875 13.56835938 C0.68741628 4.46887557 0.68741628 4.46887557 3 1 C1.35 1.66 -0.3 2.32 -2 3 C-1.34 2.01 -0.68 1.02 0 0 Z " fill="#DDDDDD" transform="translate(141,138)"/>
<path d="M0 0 C0.33 0.66 0.66 1.32 1 2 C0.525625 2.886875 0.05125 3.77375 -0.4375 4.6875 C-2.3521261 8.74650732 -2.81452583 10.55713182 -2 15 C-0.14080044 17.7276692 1.87620507 20.18887137 4.0546875 22.66796875 C7.40464597 26.68388282 8.37931541 29.51856368 8.26953125 34.828125 C7.81365614 38.5015534 6.45367186 41.608099 5 45 C4.34 45 3.68 45 3 45 C3.33 44.030625 3.66 43.06125 4 42.0625 C5.43265338 36.83752883 6.48275559 31.68954089 3.76171875 26.75390625 C1.81079012 24.11555363 -0.18879368 21.72064409 -2.64453125 19.5390625 C-5.23627035 16.59628093 -5.11910703 12.78008091 -5 9 C-4.06110095 5.41327055 -2.64906121 2.64906121 0 0 Z " fill="#434343" transform="translate(159,81)"/>
<path d="M0 0 C-16.5 13.55172414 -16.5 13.55172414 -26.625 14.25 C-27.40875 14.1675 -28.1925 14.085 -29 14 C-29 13.01 -29 12.02 -29 11 C-27.72125 10.79375 -26.4425 10.5875 -25.125 10.375 C-18.69599784 8.96897417 -12.6624179 5.6624179 -8 1 C-3.53125 -1.17708333 -3.53125 -1.17708333 0 0 Z " fill="#A1A1A1" transform="translate(65,182)"/>
<path d="M0 0 C5.94 0 11.88 0 18 0 C18.33 1.32 18.66 2.64 19 4 C18 5 18 5 16.23413086 5.11352539 C15.48526611 5.10828857 14.73640137 5.10305176 13.96484375 5.09765625 C13.15595703 5.09443359 12.34707031 5.09121094 11.51367188 5.08789062 C10.66353516 5.07951172 9.81339844 5.07113281 8.9375 5.0625 C8.08349609 5.05798828 7.22949219 5.05347656 6.34960938 5.04882812 C4.23304337 5.03700373 2.11651315 5.01906769 0 5 C0 3.35 0 1.7 0 0 Z " fill="#ADADAD" transform="translate(189,184)"/>
<path d="M0 0 C0.33 0.66 0.66 1.32 1 2 C0.19555664 3.63232422 0.19555664 3.63232422 -1.08984375 5.5546875 C-1.54423828 6.25207031 -1.99863281 6.94945312 -2.46679688 7.66796875 C-3.44245947 9.13211049 -4.41901343 10.59565866 -5.39648438 12.05859375 C-5.85216797 12.75855469 -6.30785156 13.45851562 -6.77734375 14.1796875 C-7.20265381 14.81632324 -7.62796387 15.45295898 -8.06616211 16.10888672 C-9.29517539 18.24624006 -9.29517539 18.24624006 -9 22 C-13.69112829 26.74225775 -19.57723862 27.83645746 -26 28 C-26 27.01 -26 26.02 -26 25 C-25.40832031 24.81824219 -24.81664063 24.63648438 -24.20703125 24.44921875 C-23.41683594 24.19785156 -22.62664063 23.94648438 -21.8125 23.6875 C-20.64654297 23.32205078 -20.64654297 23.32205078 -19.45703125 22.94921875 C-12.20352884 20.14699127 -9.59550016 15.80367402 -5.6875 9.3125 C-5.13771484 8.41982422 -4.58792969 7.52714844 -4.02148438 6.60742188 C-2.67071662 4.41095604 -1.33076638 2.20862087 0 0 Z " fill="#989898" transform="translate(55,159)"/>
<path d="M0 0 C0.66 0.33 1.32 0.66 2 1 C1.50628906 1.33773437 1.01257813 1.67546875 0.50390625 2.0234375 C-0.45708984 2.69246094 -0.45708984 2.69246094 -1.4375 3.375 C-2.07558594 3.81585938 -2.71367188 4.25671875 -3.37109375 4.7109375 C-5.13740928 5.92160853 -5.13740928 5.92160853 -6 8 C-5.28972656 8.19335938 -4.57945313 8.38671875 -3.84765625 8.5859375 C-2.92855469 8.84632813 -2.00945312 9.10671875 -1.0625 9.375 C-0.14597656 9.63023437 0.77054688 9.88546875 1.71484375 10.1484375 C4 11 4 11 5 13 C-0.70684056 13.44759534 -2.69553898 12.60644032 -7 9 C-10.10405796 9.18259164 -11.34164013 10.22776009 -14 12 C-14.99 11.67 -15.98 11.34 -17 11 C-15.625 9.5 -15.625 9.5 -14 8 C-13.34 8 -12.68 8 -12 8 C-12 7.01 -12 6.02 -12 5 C-13.32 4.34 -14.64 3.68 -16 3 C-15.01 2.67 -14.02 2.34 -13 2 C-12.01 2.66 -11.02 3.32 -10 4 C-7.22249814 3.71267222 -5.37666746 2.67586708 -2.875 1.375 C-1.451875 0.694375 -1.451875 0.694375 0 0 Z " fill="#3D3D3D" transform="translate(114,181)"/>
<path d="M0 0 C7.35678392 -0.36180905 7.35678392 -0.36180905 10 1.125 C11.45670212 3.85631647 11.32339354 5.96010077 11 9 C10.34 9.66 9.68 10.32 9 11 C9 11.99 9 12.98 9 14 C11.31 14.66 13.62 15.32 16 16 C15.34 16.66 14.68 17.32 14 18 C8.74592389 17.70810688 5.10717858 14.68574286 1.125 11.5 C0 10 0 10 0 6 C-0.66 5.67 -1.32 5.34 -2 5 C-1.01 4.34 -0.02 3.68 1 3 C1.99 5.31 2.98 7.62 4 10 C5.32 9.67 6.64 9.34 8 9 C8.25030977 6.58380177 8.25030977 6.58380177 8 4 C5.08235 2.0549 3.37462715 1.54723683 0 1 C0 0.67 0 0.34 0 0 Z " fill="#3C3C3C" transform="translate(115,118)"/>
<path d="M0 0 C4.87521572 1.39291878 7.19424816 3.83145441 10 8 C10.79272566 12.26948309 9.84756626 14.61011859 7.515625 18.09375 C6.4413004 19.57293091 5.35221717 21.04148472 4.25 22.5 C3.17132203 23.96834394 2.09318667 25.43708666 1.015625 26.90625 C0.49806641 27.59976563 -0.01949219 28.29328125 -0.55273438 29.0078125 C-1.86362866 30.81228237 -3.07369634 32.6471624 -4.265625 34.53125 C-4.83796875 35.3459375 -5.4103125 36.160625 -6 37 C-6.66 37 -7.32 37 -8 37 C-6.72510882 33.48002469 -5.25003506 30.74095778 -2.9609375 27.78515625 C-2.38085938 27.01623047 -1.80078125 26.24730469 -1.203125 25.45507812 C0.01663144 23.85870885 1.2432276 22.26754278 2.4765625 20.68164062 C5.96305859 16.07641277 5.96305859 16.07641277 7.51171875 10.6015625 C6.60627615 5.99831997 3.3031501 3.13799259 0 0 Z " fill="#E0E0E0" transform="translate(179,20)"/>
<path d="M0 0 C6.04649934 0.5851451 10.73596031 2.91658997 14.875 7.375 C14.545 8.035 14.215 8.695 13.875 9.375 C13.215 8.776875 12.555 8.17875 11.875 7.5625 C8.45116117 5.06595085 5.02864982 3.30479191 0.875 2.375 C-2.2980567 3.04099108 -2.2980567 3.04099108 -3.29174805 5.69165039 C-3.65308838 6.69188232 -4.01442871 7.69211426 -4.38671875 8.72265625 C-4.78310547 9.80224609 -5.17949219 10.88183594 -5.58789062 11.99414062 C-5.99201172 13.13044922 -6.39613281 14.26675781 -6.8125 15.4375 C-7.22822266 16.57767578 -7.64394531 17.71785156 -8.07226562 18.89257812 C-9.10021261 21.71647846 -10.11723713 24.5438468 -11.125 27.375 C-11.455 27.375 -11.785 27.375 -12.125 27.375 C-12.64021856 21.53585629 -10.80234975 16.97576899 -8.75 11.625 C-8.27433594 10.33142578 -8.27433594 10.33142578 -7.7890625 9.01171875 C-4.61225572 0.55347069 -4.61225572 0.55347069 0 0 Z " fill="#EAEAEA" transform="translate(169.125,19.625)"/>
<path d="M0 0 C5.31198536 0.59150929 9.24672277 3.13285984 13.828125 5.7734375 C14.73820312 6.28132813 15.64828125 6.78921875 16.5859375 7.3125 C23.24856505 11.06887755 23.24856505 11.06887755 25.578125 13.3984375 C25.703125 16.0234375 25.703125 16.0234375 25.578125 18.3984375 C24.588125 18.3984375 23.598125 18.3984375 22.578125 18.3984375 C22.908125 17.0784375 23.238125 15.7584375 23.578125 14.3984375 C20.70791222 12.76487331 17.83116243 11.1431702 14.953125 9.5234375 C14.14488281 9.06324219 13.33664063 8.60304688 12.50390625 8.12890625 C8.27431624 5.75620942 4.27743828 3.72154512 -0.421875 2.3984375 C-0.751875 3.7184375 -1.081875 5.0384375 -1.421875 6.3984375 C0.228125 7.3884375 1.878125 8.3784375 3.578125 9.3984375 C2.588125 9.8934375 2.588125 9.8934375 1.578125 10.3984375 C-0.401875 9.0784375 -2.381875 7.7584375 -4.421875 6.3984375 C-3.37303839 0.55491922 -3.37303839 0.55491922 0 0 Z " fill="#E8E8E8" transform="translate(147.421875,47.6015625)"/>
<path d="M0 0 C7.50891091 0.88340128 11.85666551 5.66296408 16.58203125 11.09765625 C19.20116537 14.61148081 19.5 18.25340052 19.5 22.50390625 C18.55297751 27.23162006 15.20196119 30.54482249 12 34 C11.34 33.67 10.68 33.34 10 33 C10.433125 32.45472656 10.86625 31.90945312 11.3125 31.34765625 C14.81495519 26.60474818 16.91167035 23.05876024 16.453125 17.06640625 C15.14497227 11.10077872 10.7662286 7.43168459 6 4 C2.78734084 2.67649342 2.78734084 2.67649342 0 2 C0 1.34 0 0.68 0 0 Z " fill="#DCDCDC" transform="translate(119,108)"/>
<path d="M0 0 C2.94908335 0.48008334 5.84993477 0.96248369 8.75 1.6875 C9.86375 1.8421875 9.86375 1.8421875 11 2 C11.66 1.34 12.32 0.68 13 0 C13.25 2.25 13.25 2.25 13 5 C11 7.3125 11 7.3125 9 9 C7.39214223 8.40572612 5.78882291 7.79916412 4.1875 7.1875 C3.29417969 6.85105469 2.40085938 6.51460937 1.48046875 6.16796875 C-0.91924072 5.03802681 -2.28423353 3.98937707 -4 2 C-1.03 2.495 -1.03 2.495 2 3 C1.34 2.67 0.68 2.34 0 2 C0 1.34 0 0.68 0 0 Z " fill="#ADADAD" transform="translate(172,28)"/>
<path d="M0 0 C0.99 0.33 1.98 0.66 3 1 C2.43152344 1.67804688 1.86304687 2.35609375 1.27734375 3.0546875 C-3.80050456 9.17523254 -8.55243582 15.40730841 -13 22 C-14 19 -14 19 -12.5 15.375 C-9.39270755 9.52852641 -5.54781994 3.69854663 0 0 Z " fill="#7F7F7F" transform="translate(105,84)"/>
<path d="M0 0 C0 3 0 3 -1 6 C-0.01 6 0.98 6 2 6 C2 9 2 9 0.64135742 10.4777832 C0.09970947 10.98011475 -0.44193848 11.48244629 -1 12 C-1.78646017 13.09584396 -2.54026306 14.21577788 -3.26171875 15.35546875 C-3.65810547 15.97744141 -4.05449219 16.59941406 -4.46289062 17.24023438 C-4.86701172 17.88283203 -5.27113281 18.52542969 -5.6875 19.1875 C-6.10322266 19.84169922 -6.51894531 20.49589844 -6.94726562 21.16992188 C-7.9683003 22.77775809 -8.98461863 24.38858764 -10 26 C-10.74609375 24.390625 -10.74609375 24.390625 -11 22 C-9.34765625 18.984375 -9.34765625 18.984375 -7.0625 15.75 C-5.93521484 14.13351563 -5.93521484 14.13351563 -4.78515625 12.484375 C-4.19605469 11.66453125 -3.60695313 10.8446875 -3 10 C-4.98 10.99 -4.98 10.99 -7 12 C-5.44298069 7.32894208 -2.91552627 3.91294315 0 0 Z " fill="#E8E8E8" transform="translate(102,115)"/>
<path d="M0 0 C0.80446727 2.81880263 1.02529479 5.26954837 1.0625 8.1875 C1.57240029 13.59065395 4.48560638 16.40417646 8.1875 20.15234375 C11.27302556 23.29771787 11.3814035 25.97162498 11.3671875 30.3359375 C10.68372486 35.29467705 8.30012438 39.60511949 6 44 C4.78181839 40.34545517 5.68886712 39.25885703 7.21875 35.89453125 C8.92732647 31.7512333 9.47941201 28.37830953 8 24.125 C6.15863224 21.08945661 6.15863224 21.08945661 4.23828125 18.94140625 C0.18937687 14.2026277 -1.7979909 11.281973 -1.34375 4.9453125 C-1 3 -1 3 0 0 Z " fill="#D2D2D2" transform="translate(154,86)"/>
<path d="M0 0 C2.33746522 -0.30300475 4.67085177 -0.63858045 7 -1 C10.86203152 -1.19238902 14.2884095 -1.23719683 18 0 C18 0.66 18 1.32 18 2 C12.72 2 7.44 2 2 2 C1.67 2.99 1.34 3.98 1 5 C-1.475 4.505 -1.475 4.505 -4 4 C-4 3.34 -4 2.68 -4 2 C-10.93 1.505 -10.93 1.505 -18 1 C-18 0.67 -18 0.34 -18 0 C-11.76659245 -0.6556173 -6.19247678 -1.1520887 0 0 Z " fill="#303030" transform="translate(70,176)"/>
<path d="M0 0 C0.33 1.32 0.66 2.64 1 4 C0.2575 3.95875 -0.485 3.9175 -1.25 3.875 C-4.18101215 4.00822783 -5.65668642 4.24251481 -8 6 C-8.93580311 8.87939419 -9.37245106 10.25509788 -8 13 C-8.9375 15.125 -8.9375 15.125 -10 17 C-12.70257234 12.94614148 -13.49105043 10.91050431 -13 6 C-10.85120034 2.9420928 -9.50320409 2.13083306 -5.875 1.1875 C-3 1 -3 1 -1 2 C-0.67 1.34 -0.34 0.68 0 0 Z " fill="#9C9C9C" transform="translate(153,43)"/>
<path d="M0 0 C0.66 0 1.32 0 2 0 C1.03903745 3.01392799 0.03069758 6.00921515 -1 9 C-1.30164063 9.88558594 -1.60328125 10.77117187 -1.9140625 11.68359375 C-3.77030888 16.76186127 -5.1944445 20.06327164 -10 23 C-9.32584579 18.63880487 -7.80372897 14.77528712 -6.0625 10.75 C-5.66514648 9.79480469 -5.66514648 9.79480469 -5.25976562 8.8203125 C-3.2458954 4.1229477 -3.2458954 4.1229477 -1 3 C-0.67 2.01 -0.34 1.02 0 0 Z " fill="#808080" transform="translate(161,126)"/>
<path d="M0 0 C0.66 0 1.32 0 2 0 C0.39369175 4.24292532 -1.5768162 8.27025107 -3.625 12.3125 C-3.94984375 12.95767578 -4.2746875 13.60285156 -4.609375 14.26757812 C-5.40441956 15.84597541 -6.20195634 17.42311694 -7 19 C-8.305239 15.08428299 -7.32239848 13.96107003 -5.5625 10.3125 C-5.08941406 9.31863281 -4.61632812 8.32476562 -4.12890625 7.30078125 C-3.57009766 6.16189453 -3.57009766 6.16189453 -3 5 C-7.455 5.495 -7.455 5.495 -12 6 C-11.67 5.01 -11.34 4.02 -11 3 C-10.28972656 2.86722656 -9.57945312 2.73445312 -8.84765625 2.59765625 C-7.92855469 2.42105469 -7.00945312 2.24445313 -6.0625 2.0625 C-4.68771484 1.80146484 -4.68771484 1.80146484 -3.28515625 1.53515625 C-1.04710156 1.22285012 -1.04710156 1.22285012 0 0 Z " fill="#4C4C4C" transform="translate(142,139)"/>
<path d="M0 0 C6.02499274 2.16092992 11.69389683 5.46259788 17 9 C17 9.99 17 10.98 17 12 C16.34 12 15.68 12 15 12 C14.40960938 11.39542969 13.81921875 10.79085937 13.2109375 10.16796875 C8.44096367 5.49069759 0.66919387 2.31019506 -6 2 C-9.26410357 2.37617294 -9.26410357 2.37617294 -12 3 C-12.33 2.34 -12.66 1.68 -13 1 C-8.90711039 -1.0464448 -4.43039727 -0.66141002 0 0 Z " fill="#EEEEEE" transform="translate(85,177)"/>
<path d="M0 0 C3 1 3 1 5.0625 3.8125 C8.37631299 8.05704441 13.02998322 9.35941194 18 11 C16.2421875 14.8828125 16.2421875 14.8828125 14.0625 15.9375 C12 16 12 16 10.25 14.5625 C9.8375 14.046875 9.425 13.53125 9 13 C9.804375 13.185625 10.60875 13.37125 11.4375 13.5625 C12.283125 13.706875 13.12875 13.85125 14 14 C14.33 13.67 14.66 13.34 15 13 C13.205625 12.1646875 13.205625 12.1646875 11.375 11.3125 C7.3792825 9.32886089 4.30815324 6.97733792 1 4 C1.33 5.32 1.66 6.64 2 8 C0.68 7.01 -0.64 6.02 -2 5 C-1.34 3.35 -0.68 1.7 0 0 Z " fill="#E6E6E6" transform="translate(112,125)"/>
<path d="M0 0 C0.66 1.32 1.32 2.64 2 4 C0.74151422 6.0087944 -0.53051046 8.00629298 -1.8125 10 C-2.87404297 11.670625 -2.87404297 11.670625 -3.95703125 13.375 C-4.63121094 14.24125 -5.30539063 15.1075 -6 16 C-6.99 16 -7.98 16 -9 16 C-8.37695259 11.92546771 -6.23467379 9.10460299 -3.9375 5.75 C-3.20402344 4.67234375 -2.47054687 3.5946875 -1.71484375 2.484375 C-1.14894531 1.66453125 -0.58304688 0.8446875 0 0 Z " fill="#8B8B8B" transform="translate(73,159)"/>
<path d="M0 0 C5.34869922 -0.50939993 7.85589601 0.63291551 12 4 C18.27972916 10.30900528 18.27972916 10.30900528 19 15 C18.72949547 17.00946222 18.40632091 19.01354224 18 21 C17.67 21 17.34 21 17 21 C16.96003906 20.3709375 16.92007813 19.741875 16.87890625 19.09375 C16.0334908 12.16343076 13.74884063 8.90294823 8.33203125 4.5625 C5.65348008 2.76782585 3.16437789 1.64910316 0 1 C0 0.67 0 0.34 0 0 Z " fill="#595959" transform="translate(117,110)"/>
<path d="M0 0 C0.66 0 1.32 0 2 0 C2 1.32 2 2.64 2 4 C6.91535146 5.35172165 9.69749279 4.63941158 14.16796875 2.59375 C16 2 16 2 19 3 C16.16853081 5.42984235 13.42385958 7.48689162 10 9 C5.3308254 8.62734287 1.83696371 6.55797581 -2 4 C-1.34 2.68 -0.68 1.36 0 0 Z " fill="#CBCBCB" transform="translate(110,185)"/>
<path d="M0 0 C1.31677734 -0.02126953 1.31677734 -0.02126953 2.66015625 -0.04296875 C4.9375 0.1875 4.9375 0.1875 6.9375 2.1875 C4.9375 3.1875 4.9375 3.1875 2.4375 2.5625 C-4.98054275 1.7677097 -11.19919024 4.93660042 -17.0625 9.1875 C-17.7225 9.1875 -18.3825 9.1875 -19.0625 9.1875 C-18.0625 6.1875 -18.0625 6.1875 -15.8828125 4.8359375 C-14.99335937 4.41570312 -14.10390625 3.99546875 -13.1875 3.5625 C-11.86105469 2.92441406 -11.86105469 2.92441406 -10.5078125 2.2734375 C-6.83920366 0.64424699 -3.98653274 0.02935591 0 0 Z " fill="#EAEAEA" transform="translate(131.0625,176.8125)"/>
<path d="M0 0 C2 0 2 0 4.4375 2.25 C5.283125 3.1575 6.12875 4.065 7 5 C7.8971875 5.9590625 7.8971875 5.9590625 8.8125 6.9375 C10.46589702 9.80918956 10.40765447 11.73876422 10 15 C8.5 17.375 8.5 17.375 7 19 C6.01 18.67 5.02 18.34 4 18 C4.495 17.443125 4.99 16.88625 5.5 16.3125 C7.12358808 14.09784721 7.12358808 14.09784721 7.5625 11.5625 C6.7029364 7.64671028 4.13187457 6.31758718 1 4 C0.34 3.34 -0.32 2.68 -1 2 C-0.67 1.34 -0.34 0.68 0 0 Z " fill="#4A4A4A" transform="translate(177,19)"/>
<path d="M0 0 C0.66 0 1.32 0 2 0 C0.91215844 3.91622962 -0.61651554 5.99848725 -4.06103516 8.18847656 C-7.99385205 9.83449562 -12.18670852 9.40534319 -16.375 9.25 C-17.76525391 9.22292969 -17.76525391 9.22292969 -19.18359375 9.1953125 C-21.45681435 9.14844197 -23.72785407 9.08285525 -26 9 C-26 8.34 -26 7.68 -26 7 C-25.42032471 6.9906543 -24.84064941 6.98130859 -24.2434082 6.97167969 C-21.59893054 6.9177593 -18.95618107 6.83415871 -16.3125 6.75 C-14.94448242 6.72873047 -14.94448242 6.72873047 -13.54882812 6.70703125 C-9.22808616 6.54991336 -6.64991543 6.40527046 -2.91796875 4.078125 C-0.95802303 2.14769862 -0.95802303 2.14769862 0 0 Z " fill="#F3F3F3" transform="translate(136,76)"/>
<path d="M0 0 C0.58652344 0.21140625 1.17304687 0.4228125 1.77734375 0.640625 C1.01808594 1.05054688 0.25882813 1.46046875 -0.5234375 1.8828125 C-1.51730469 2.42164063 -2.51117188 2.96046875 -3.53515625 3.515625 C-4.52128906 4.04929688 -5.50742187 4.58296875 -6.5234375 5.1328125 C-9.31852083 6.64784626 -9.31852083 6.64784626 -12.22265625 8.640625 C-14.703125 9.0546875 -14.703125 9.0546875 -17.41015625 9.265625 C-18.31121094 9.34039062 -19.21226563 9.41515625 -20.140625 9.4921875 C-20.82769531 9.54117188 -21.51476562 9.59015625 -22.22265625 9.640625 C-21.89265625 8.320625 -21.56265625 7.000625 -21.22265625 5.640625 C-21.22265625 6.300625 -21.22265625 6.960625 -21.22265625 7.640625 C-14.71544144 6.16932459 -9.35174578 4.57134456 -3.9765625 0.53125 C-2.22265625 -0.359375 -2.22265625 -0.359375 0 0 Z " fill="#EAEAEA" transform="translate(50.22265625,179.359375)"/>
<path d="M0 0 C3.83473284 -0.35671933 5.55342875 -0.29771416 8.8125 1.875 C11.43215568 4.41980837 11.93451947 5.24697396 12.25 8.875 C11.97637294 12.29533822 11.28639008 13.52307741 9 16 C11.31 16.33 13.62 16.66 16 17 C16 17.33 16 17.66 16 18 C10.375 18.25 10.375 18.25 7 16 C7.875 12.125 7.875 12.125 9 11 C9.41702122 8.0842309 9.41702122 8.0842309 9 5 C6.36771463 2.17273053 3.7595188 1.52215539 0 1 C0 0.67 0 0.34 0 0 Z " fill="#D8D8D8" transform="translate(116,116)"/>
<path d="M0 0 C-5.65275661 3.80946641 -10.22613615 4.72740991 -17 5 C-17 4.01 -17 3.02 -17 2 C-14.54316882 1.47097431 -12.08497874 0.95149191 -9.625 0.4375 C-8.92632812 0.28603516 -8.22765625 0.13457031 -7.5078125 -0.02148438 C-2.2265625 -1.11328125 -2.2265625 -1.11328125 0 0 Z " fill="#696969" transform="translate(53,191)"/>
<path d="M0 0 C0.99 0.33 1.98 0.66 3 1 C-0.59556704 5.12432689 -2.63775713 6.31545836 -8 7 C-8.70125 7.53625 -9.4025 8.0725 -10.125 8.625 C-12 10 -12 10 -14.0625 9.875 C-16.21987969 8.9006995 -17.45543876 7.77624543 -19 6 C-18.14792969 6.41121094 -17.29585938 6.82242188 -16.41796875 7.24609375 C-12.92653981 8.38397348 -12.92653981 8.38397348 -9.67578125 6.41015625 C-8.54085049 5.64781044 -7.41981176 4.86443493 -6.3125 4.0625 C-4.23812936 2.60502505 -2.19120936 1.29015131 0 0 Z " fill="#AFAFAF" transform="translate(119,176)"/>
<path d="M0 0 C0.33 0.66 0.66 1.32 1 2 C4.63 2 8.26 2 12 2 C12 2.66 12 3.32 12 4 C10.93072266 4.09087891 10.93072266 4.09087891 9.83984375 4.18359375 C4.53039712 4.64808101 -0.733409 5.18075251 -6 6 C-4.625 4.5 -4.625 4.5 -3 3 C-2.34 3 -1.68 3 -1 3 C-0.67 2.01 -0.34 1.02 0 0 Z " fill="#353535" transform="translate(125,173)"/>
<path d="M0 0 C1.28583984 0.00966797 1.28583984 0.00966797 2.59765625 0.01953125 C4.9375 0.1875 4.9375 0.1875 7.9375 1.1875 C8.2675 2.1775 8.5975 3.1675 8.9375 4.1875 C6.96003397 4.91830266 4.95677511 5.58171747 2.9375 6.1875 C2.2775 5.8575 1.6175 5.5275 0.9375 5.1875 C1.5975 4.5275 2.2575 3.8675 2.9375 3.1875 C-1.1152516 2.20501476 -4.90111737 2.10590426 -9.0625 2.1875 C-5.91659472 0.3408317 -3.63099948 -0.06024283 0 0 Z " fill="#C7C7C7" transform="translate(58.0625,176.8125)"/>
<path d="M0 0 C1.0625 1.81640625 1.0625 1.81640625 2 4 C0.21235353 9.2512115 -2.71687603 11.76386189 -7 15 C-5.45454854 9.52067211 -2.84456788 4.88570819 0 0 Z " fill="#9A9A9A" transform="translate(162,71)"/>
<path d="M0 0 C0.66 0.33 1.32 0.66 2 1 C0.38055089 3.48295611 -1.24519149 5.96135842 -2.875 8.4375 C-3.33519531 9.14455078 -3.79539062 9.85160156 -4.26953125 10.58007812 C-4.71425781 11.25361328 -5.15898438 11.92714844 -5.6171875 12.62109375 C-6.02565918 13.2442749 -6.43413086 13.86745605 -6.85498047 14.50952148 C-8 16 -8 16 -10 17 C-9.37307684 12.95438646 -7.27725722 10.15112174 -5 6.8125 C-4.278125 5.74644531 -3.55625 4.68039063 -2.8125 3.58203125 C-1 1 -1 1 0 0 Z " fill="#3C3C3C" transform="translate(84,145)"/>
<path d="M0 0 C0.33 0 0.66 0 1 0 C0.57534294 7.36072234 -1.98348917 13.32137824 -5 20 C-5.66 19.67 -6.32 19.34 -7 19 C-4.94235079 12.54646385 -2.57616518 6.2638737 0 0 Z " fill="#E3E3E3" transform="translate(166,118)"/>
<path d="M0 0 C3.25696479 0.41755959 4.63443291 0.63443291 7 3 C7.25 5.5 7.25 5.5 7 8 C6.34 8.66 5.68 9.32 5 10 C3 9.8125 3 9.8125 1 9 C-1.14809171 5.77786243 -1.29386153 4.72224599 -1 1 C-0.67 0.67 -0.34 0.34 0 0 Z M1 2 C0.67 2.66 0.34 3.32 0 4 C1.39092892 6.62387135 1.39092892 6.62387135 3 9 C3.99 8.34 4.98 7.68 6 7 C5.67 5.68 5.34 4.36 5 3 C3.68 2.67 2.36 2.34 1 2 Z " fill="#DBDBDB" transform="translate(117,119)"/>
<path d="M0 0 C7.09629025 -0.31461385 12.68284595 -0.44572039 19 3 C16.56644121 4.53224072 15.34278436 5.03344238 12.4375 4.75 C10 4 10 4 7 2 C4.67612053 1.60612212 2.34206251 1.26513915 0 1 C0 0.67 0 0.34 0 0 Z " fill="#9F9F9F" transform="translate(147,174)"/>
<path d="M0 0 C0 3.60800902 -0.37635632 6.75271264 -2 10 C-2.99 10.33 -3.98 10.66 -5 11 C-6.37195574 12.29355827 -7.71182656 13.62298702 -9 15 C-7.61219205 11.10993227 -5.7847773 8.03441292 -3.375 4.6875 C-2.74335937 3.80449219 -2.11171875 2.92148438 -1.4609375 2.01171875 C-0.97882813 1.34785156 -0.49671875 0.68398437 0 0 Z " fill="#AEAEAE" transform="translate(92,100)"/>
<path d="M0 0 C0.94616328 3.42984189 1 6.44175575 1 10 C1.66 10.33 2.32 10.66 3 11 C-0.32534757 12.10844919 -2.62182575 11.84454356 -6 11 C-5.566875 10.29875 -5.13375 9.5975 -4.6875 8.875 C-2.98498914 5.97442594 -1.47551433 3.02129125 0 0 Z " fill="#B5B5B5" transform="translate(143,165)"/>
<path d="M0 0 C1.32 0 2.64 0 4 0 C3.731875 0.78375 3.46375 1.5675 3.1875 2.375 C1.70766479 6.89239169 0.35097726 11.44270338 -1 16 C-1.99 15.67 -2.98 15.34 -4 15 C-3.31113213 11.61108678 -2.01283514 8.81988387 -0.4375 5.75 C0.01753906 4.85796875 0.47257813 3.9659375 0.94140625 3.046875 C1.29074219 2.37140625 1.64007813 1.6959375 2 1 C1.34 0.67 0.68 0.34 0 0 Z " fill="#AFAFAF" transform="translate(135,144)"/>
<path d="M0 0 C4.43090471 1.20842856 6.98112756 2.51668565 10 6 C7.8125 6.75 7.8125 6.75 5 7 C2.1875 5.25 2.1875 5.25 0 3 C0 2.01 0 1.02 0 0 Z " fill="#858585" transform="translate(111,132)"/>
<path d="M0 0 C0.66 0.99 1.32 1.98 2 3 C0.71186658 3.83878455 -0.58063256 4.67086783 -1.875 5.5 C-2.59429687 5.9640625 -3.31359375 6.428125 -4.0546875 6.90625 C-6 8 -6 8 -8 8 C-6.9802693 4.22699642 -6.34127338 3.19793856 -2.875 1.1875 C-1.92625 0.795625 -0.9775 0.40375 0 0 Z " fill="#676767" transform="translate(138,178)"/>
<path d="M0 0 C0.33 0 0.66 0 1 0 C1.82901378 3.03971718 2.31365978 4.9190515 2 8 C0.03211117 11.3433504 -2.36568031 14.16202966 -5 17 C-5.66 16.67 -6.32 16.34 -7 16 C-6.57847656 15.43152344 -6.15695313 14.86304688 -5.72265625 14.27734375 C-2.28071769 9.42623505 -0.25436983 5.97769106 0 0 Z " fill="#D4D4D4" transform="translate(136,125)"/>
<path d="M0 0 C3.625 -0.1875 3.625 -0.1875 7 0 C7 0.33 7 0.66 7 1 C6.21625 1.0825 5.4325 1.165 4.625 1.25 C1.89415132 1.73203756 1.89415132 1.73203756 0.6875 3.875 C-0.15391014 6.10348125 -0.15391014 6.10348125 0 9 C-1.32 8.34 -2.64 7.68 -4 7 C-2.79618552 4.50638429 -1.54571278 2.31856917 0 0 Z " fill="#858585" transform="translate(114,117)"/>
<path d="M0 0 C0.99 0 1.98 0 3 0 C4.39935013 2.79870027 4.25265405 4.90498792 4 8 C2.8125 9.9375 2.8125 9.9375 1 11 C-1.6875 10.6875 -1.6875 10.6875 -4 10 C-4 9.67 -4 9.34 -4 9 C-2.35 8.67 -0.7 8.34 1 8 C1.08226668 4.95613276 0.97608217 2.92824652 0 0 Z " fill="#505050" transform="translate(171,58)"/>
<path d="M0 0 C0 3.60800902 -0.37635632 6.75271264 -2 10 C-3.64363134 10.72159424 -5.31050386 11.39351421 -7 12 C-5.44298069 7.32894208 -2.91552627 3.91294315 0 0 Z " fill="#9F9F9F" transform="translate(102,115)"/>
<path d="M0 0 C1.90845703 0.16628906 1.90845703 0.16628906 3.85546875 0.3359375 C4.83128906 0.43132812 5.80710937 0.52671875 6.8125 0.625 C6.8125 0.955 6.8125 1.285 6.8125 1.625 C5.68070313 1.75777344 4.54890625 1.89054687 3.3828125 2.02734375 C1.90101821 2.2055342 0.41924864 2.38393029 -1.0625 2.5625 C-2.18205078 2.69301758 -2.18205078 2.69301758 -3.32421875 2.82617188 C-7.3828231 3.25826063 -7.3828231 3.25826063 -11.1875 4.625 C-9.19675026 -1.34724923 -5.46656288 -0.50151953 0 0 Z " fill="#989898" transform="translate(114.1875,81.375)"/>
<path d="M0 0 C0.66 0 1.32 0 2 0 C2 0.66 2 1.32 2 2 C5.3 1.67 8.6 1.34 12 1 C11 3 11 3 9.375 3.625 C6.2339425 4.12095645 3.17398169 4.06103811 0 4 C0 2.68 0 1.36 0 0 Z " fill="#E0E0E0" transform="translate(34,194)"/>
<path d="M0 0 C2.97 0.33 5.94 0.66 9 1 C9 1.66 9 2.32 9 3 C10.32 3.33 11.64 3.66 13 4 C13 4.66 13 5.32 13 6 C8.52761347 4.58192622 4.28853694 2.88695626 0 1 C0 0.67 0 0.34 0 0 Z " fill="#343434" transform="translate(146,46)"/>
<path d="M0 0 C5.2858549 -0.50341475 7.86554151 0.73089329 12 4 C12.33 4.66 12.66 5.32 13 6 C9.49518401 5.35096 7.00516626 3.87822891 4 2 C2.67391178 1.31903578 1.34313399 0.64669414 0 0 Z " fill="#434343" transform="translate(117,110)"/>
<path d="M0 0 C1.305239 3.91571701 0.32239848 5.03892997 -1.4375 8.6875 C-1.91058594 9.68136719 -2.38367188 10.67523438 -2.87109375 11.69921875 C-3.42990234 12.83810547 -3.42990234 12.83810547 -4 14 C-5.20371769 10.38884694 -4.71183147 9.75890242 -3.125 6.4375 C-2.75632813 5.65246094 -2.38765625 4.86742187 -2.0078125 4.05859375 C-1.34414845 2.70296989 -0.67500608 1.35001216 0 0 Z " fill="#383838" transform="translate(154,144)"/>
<path d="M0 0 C5.37305699 -0.35233161 5.37305699 -0.35233161 8 0 C10 2 10 2 11 4 C10.34 5.32 9.68 6.64 9 8 C8.7215625 6.824375 8.7215625 6.824375 8.4375 5.625 C7.16038373 2.60623658 7.16038373 2.60623658 3.375 1.6875 C2.26125 1.460625 1.1475 1.23375 0 1 C0 0.67 0 0.34 0 0 Z " fill="#434343" transform="translate(115,118)"/>
<path d="M0 0 C0.66 0.33 1.32 0.66 2 1 C-0.31 4.3 -2.62 7.6 -5 11 C-5.33 10.01 -5.66 9.02 -6 8 C-4.78515625 5.95703125 -4.78515625 5.95703125 -3.0625 3.8125 C-2.49660156 3.09707031 -1.93070313 2.38164063 -1.34765625 1.64453125 C-0.90292969 1.10183594 -0.45820313 0.55914062 0 0 Z " fill="#E9E9E9" transform="translate(184,37)"/>
<path d="M0 0 C0.99 0.33 1.98 0.66 3 1 C2.67 2.32 2.34 3.64 2 5 C3.65 5.99 5.3 6.98 7 8 C6.01 8.495 6.01 8.495 5 9 C3.02 7.68 1.04 6.36 -1 5 C-0.67 3.35 -0.34 1.7 0 0 Z " fill="#D9D9D9" transform="translate(144,49)"/>
<path d="M0 0 C3.55780196 0.60990891 6.6828589 1.5783681 10 3 C8.02 3.99 8.02 3.99 6 5 C3.98079663 3.69593116 1.98075027 2.36176581 0 1 C0 0.67 0 0.34 0 0 Z " fill="#444444" transform="translate(117,138)"/>
<path d="M0 0 C4.95 0.99 4.95 0.99 10 2 C10 2.66 10 3.32 10 4 C7.25 4.25 7.25 4.25 4 4 C1.625 2 1.625 2 0 0 Z " fill="#3D3D3D" transform="translate(86,190)"/>
<path d="M0 0 C-1.12073862 0.83905565 -2.24674547 1.67107831 -3.375 2.5 C-4.00148438 2.9640625 -4.62796875 3.428125 -5.2734375 3.90625 C-7 5 -7 5 -9 5 C-8.00233891 2.50584728 -7.31383315 1.21259665 -5.0625 -0.3125 C-3 -1 -3 -1 0 0 Z " fill="#414141" transform="translate(129,188)"/>
<path d="M0 0 C2.31 0 4.62 0 7 0 C7.33 1.65 7.66 3.3 8 5 C5.69 4.67 3.38 4.34 1 4 C1 3.67 1 3.34 1 3 C2.65 3 4.3 3 6 3 C6 2.34 6 1.68 6 1 C4.02 1 2.04 1 0 1 C0 0.67 0 0.34 0 0 Z " fill="#DADADA" transform="translate(179,184)"/>
<path d="M0 0 C0.99 0.33 1.98 0.66 3 1 C0.36 2.98 -2.28 4.96 -5 7 C-5 6.01 -5 5.02 -5 4 C-2.6875 1.75 -2.6875 1.75 0 0 Z " fill="#3C3C3C" transform="translate(62,181)"/>
<path d="M0 0 C1.50433594 0.01353516 1.50433594 0.01353516 3.0390625 0.02734375 C3.80992188 0.03894531 4.58078125 0.05054688 5.375 0.0625 C5.375 0.3925 5.375 0.7225 5.375 1.0625 C1.415 1.7225 -2.545 2.3825 -6.625 3.0625 C-6.955 2.4025 -7.285 1.7425 -7.625 1.0625 C-4.98041621 -0.25979189 -2.94738699 -0.03427194 0 0 Z " fill="#D6D6D6" transform="translate(79.625,176.9375)"/>
<path d="M0 0 C-0.75 2.4375 -0.75 2.4375 -2 5 C-4.125 5.8125 -4.125 5.8125 -6 6 C-5.6875 4.125 -5.6875 4.125 -5 2 C-2 0 -2 0 0 0 Z " fill="#676767" transform="translate(70,169)"/>
<path d="M0 0 C0.66 0.66 1.32 1.32 2 2 C0.35 3.65 -1.3 5.3 -3 7 C-3.33 6.34 -3.66 5.68 -4 5 C-2.52830189 1.26415094 -2.52830189 1.26415094 0 0 Z " fill="#6B6B6B" transform="translate(135,74)"/>
<path d="M0 0 C1.134375 0.020625 2.26875 0.04125 3.4375 0.0625 C3.4375 0.3925 3.4375 0.7225 3.4375 1.0625 C2.07625 1.43375 2.07625 1.43375 0.6875 1.8125 C-2.66601489 3.10231342 -4.23958236 4.38221042 -6.5625 7.0625 C-4.33277027 0.07601351 -4.33277027 0.07601351 0 0 Z " fill="#DEDEDE" transform="translate(169.5625,19.9375)"/>
<path d="M0 0 C0.66 0.33 1.32 0.66 2 1 C2 1.99 2 2.98 2 4 C-0.97 4.66 -3.94 5.32 -7 6 C-4.74259377 3.66475218 -2.7194239 1.81294927 0 0 Z " fill="#B1B1B1" transform="translate(129,183)"/>
<path d="M0 0 C3.82097239 0.53069061 6.06171403 1.49701566 9 4 C7.35 4.66 5.7 5.32 4 6 C4 5.01 4 4.02 4 3 C2.68 2.34 1.36 1.68 0 1 C0 0.67 0 0.34 0 0 Z " fill="#454545" transform="translate(98,183)"/>
<path d="M0 0 C6.93 0.495 6.93 0.495 14 1 C14 1.33 14 1.66 14 2 C9.05 2.33 4.1 2.66 -1 3 C-0.67 2.01 -0.34 1.02 0 0 Z " fill="#D4D4D4" transform="translate(50,173)"/>
<path d="M0 0 C1.1875 1.6875 1.1875 1.6875 2 4 C0.625 6.75 0.625 6.75 -1 9 C-1.99 8.67 -2.98 8.34 -4 8 C-3.2884375 7.13375 -3.2884375 7.13375 -2.5625 6.25 C-1.0515133 4.07417916 -0.45963849 2.57397552 0 0 Z " fill="#545454" transform="translate(185,29)"/>
<path d="M0 0 C0.66 0.33 1.32 0.66 2 1 C0.35 3.64 -1.3 6.28 -3 9 C-3.33 7.68 -3.66 6.36 -4 5 C-2.0625 2.25 -2.0625 2.25 0 0 Z " fill="#E7E7E7" transform="translate(81,153)"/>
<path d="M0 0 C0.66 0 1.32 0 2 0 C0.92598892 2.91517292 0.22189824 4.77810176 -2 7 C-4.125 6.625 -4.125 6.625 -6 6 C-5.195625 5.38125 -4.39125 4.7625 -3.5625 4.125 C-0.96125481 2.25835959 -0.96125481 2.25835959 0 0 Z " fill="#EBEBEB" transform="translate(136,76)"/>
<path d="M0 0 C5.75 1.75 5.75 1.75 8 4 C5 5 5 5 1.8125 3.5625 C0.884375 3.046875 -0.04375 2.53125 -1 2 C-0.67 1.34 -0.34 0.68 0 0 Z " fill="#4C4C4C" transform="translate(159,51)"/>
<path d="M0 0 C0.66 0.33 1.32 0.66 2 1 C0.02 3.97 0.02 3.97 -2 7 C-2.99 6.67 -3.98 6.34 -5 6 C-3.35 4.02 -1.7 2.04 0 0 Z " fill="#424242" transform="translate(181,38)"/>
<path d="M0 0 C0.33 0 0.66 0 1 0 C0.25 7.75 0.25 7.75 -2 10 C-3.39195915 5.82412255 -1.82323219 3.86525224 0 0 Z " fill="#D8D8D8" transform="translate(162,128)"/>
<path d="M0 0 C0.66 0.33 1.32 0.66 2 1 C-0.475 4.465 -0.475 4.465 -3 8 C-3.33 7.01 -3.66 6.02 -4 5 C-2.0625 2.3125 -2.0625 2.3125 0 0 Z " fill="#404040" transform="translate(95,98)"/>
<path d="M0 0 C0.33 1.32 0.66 2.64 1 4 C-0.4375 6.25 -0.4375 6.25 -2 8 C-2.99 7.67 -3.98 7.34 -5 7 C-3.35 4.69 -1.7 2.38 0 0 Z " fill="#DEDEDE" transform="translate(101,92)"/>
<path d="M0 0 C1.32 0.33 2.64 0.66 4 1 C3.67 1.99 3.34 2.98 3 4 C2.01 4 1.02 4 0 4 C0 2.68 0 1.36 0 0 Z " fill="#E9E9E9" transform="translate(88,151)"/>
<path d="M0 0 C0.99 0 1.98 0 3 0 C3 1.32 3 2.64 3 4 C1.68 3.67 0.36 3.34 -1 3 C-0.67 2.01 -0.34 1.02 0 0 Z " fill="#ECECEC" transform="translate(96,140)"/>
<path d="M0 0 C1.32 0.33 2.64 0.66 4 1 C3.67 1.99 3.34 2.98 3 4 C2.01 3.67 1.02 3.34 0 3 C0 2.01 0 1.02 0 0 Z " fill="#EBEBEB" transform="translate(92,146)"/>
<path d="M0 0 C0.99 0 1.98 0 3 0 C3 0.99 3 1.98 3 3 C1.68 3 0.36 3 -1 3 C-0.67 2.01 -0.34 1.02 0 0 Z " fill="#EBEBEB" transform="translate(100,135)"/>
</svg>
